<svg xmlns="http://www.w3.org/2000/svg" width="60" height="60" viewBox="0 0 60 60" fill="none">
<path d="M30 11.7188C29.3531 11.7188 28.8281 12.2437 28.8281 12.8906C28.8281 13.5375 29.3531 14.0625 30 14.0625C30.6469 14.0625 31.1719 13.5375 31.1719 12.8906C31.1719 12.2437 30.6469 11.7188 30 11.7188ZM10.5469 32.8125C11.1938 32.8125 11.7188 32.2875 11.7188 31.6406C11.7188 30.9937 11.1938 30.4688 10.5469 30.4688C9.9 30.4688 9.375 30.9937 9.375 31.6406C9.375 32.2875 9.9 32.8125 10.5469 32.8125Z" fill="#FF744F"/>
<path d="M39.375 0C28.825 0 20.1659 7.27383 19.4961 16.436C9.44883 16.9399 0 24.185 0 33.9844C0 38.0795 1.62047 42.0475 4.57031 45.1914C5.15391 47.5973 4.44539 50.1476 2.68711 51.9059C2.52316 52.0697 2.41148 52.2785 2.36622 52.5058C2.32096 52.7332 2.34415 52.9688 2.43284 53.1829C2.52154 53.3971 2.67176 53.5801 2.8645 53.7089C3.05724 53.8376 3.28384 53.9063 3.51562 53.9062C6.85781 53.9062 10.0786 52.5956 12.4718 50.2863C14.8031 51.0809 17.845 51.5625 20.625 51.5625C31.1737 51.5625 39.8318 44.2904 40.5034 35.1301C42.957 35.0211 45.5091 34.568 47.5282 33.88C49.9214 36.1894 53.1422 37.5 56.4844 37.5C56.7162 37.5001 56.9428 37.4314 57.1355 37.3026C57.3282 37.1739 57.4785 36.9908 57.5672 36.7767C57.6559 36.5625 57.679 36.3269 57.6338 36.0996C57.5885 35.8722 57.4768 35.6635 57.3129 35.4996C55.5546 33.7413 54.8461 31.1911 55.4297 28.7851C58.3795 25.6412 60 21.6732 60 17.5781C60 7.39605 49.8234 0 39.375 0ZM20.625 49.2188C17.8591 49.2188 14.7075 48.6758 12.5962 47.8359C12.3752 47.7479 12.1327 47.7292 11.9008 47.7823C11.6689 47.8354 11.4587 47.9579 11.298 48.1334C9.88313 49.6802 8.0434 50.7587 6.03879 51.2544C7.15991 49.1063 7.41563 46.6103 6.7534 44.2794C6.70037 44.0932 6.60191 43.923 6.46687 43.7842C3.80812 41.0459 2.34375 37.5655 2.34375 33.9844C2.34375 25.7263 10.7154 18.75 20.625 18.75C29.9827 18.75 38.2031 25.2571 38.2031 33.9844C38.2031 42.3848 30.3176 49.2188 20.625 49.2188ZM53.5331 27.3779C53.3983 27.5169 53.2998 27.6871 53.2466 27.8733C52.5844 30.2041 52.8401 32.7001 53.9612 34.8483C51.9566 34.3529 50.1169 33.2739 48.7018 31.7271C48.5412 31.5517 48.331 31.4293 48.0991 31.3762C47.8673 31.3231 47.6248 31.3417 47.4037 31.4296C45.574 32.1574 42.9639 32.6614 40.4998 32.7832C40.1573 28.3516 37.9467 24.1863 34.1674 21.0938H49.4531C50.1004 21.0938 50.625 20.5691 50.625 19.9219C50.625 19.2746 50.1004 18.75 49.4531 18.75H30.5672C27.907 17.3959 24.9202 16.6063 21.8459 16.4406C22.5192 8.5698 30.124 2.34375 39.375 2.34375C49.2847 2.34375 57.6562 9.32004 57.6562 17.5781C57.6562 21.1593 56.1919 24.6396 53.5331 27.3779Z" fill="#FF744F"/>
<path d="M30 30.4688H15.2344C14.5871 30.4688 14.0625 30.9934 14.0625 31.6406C14.0625 32.2879 14.5871 32.8125 15.2344 32.8125H30C30.6472 32.8125 31.1719 32.2879 31.1719 31.6406C31.1719 30.9934 30.6472 30.4688 30 30.4688ZM30 37.5H10.5469C9.89965 37.5 9.375 38.0246 9.375 38.6719C9.375 39.3191 9.89965 39.8438 10.5469 39.8438H30C30.6472 39.8438 31.1719 39.3191 31.1719 38.6719C31.1719 38.0246 30.6472 37.5 30 37.5ZM49.4531 11.7188H34.6875C34.0403 11.7188 33.5156 12.2434 33.5156 12.8906C33.5156 13.5379 34.0403 14.0625 34.6875 14.0625H49.4531C50.1004 14.0625 50.625 13.5379 50.625 12.8906C50.625 12.2434 50.1004 11.7188 49.4531 11.7188Z" fill="#FF744F"/>
</svg>