<svg width="52" height="60" viewBox="0 0 52 60" fill="none" xmlns="http://www.w3.org/2000/svg">
<path fill-rule="evenodd" clip-rule="evenodd" d="M25.7897 59.9214C25.9286 59.9481 26.0713 59.9481 26.2102 59.9214C40.8829 57.0997 51.4881 44.2607 51.4881 29.3191V8.8089C51.4881 8.32227 51.1721 7.89202 50.7077 7.74654L26.3693 0.121414C26.2519 0.0801697 26.1272 0.0583229 25.9999 0.0584679C25.8727 0.0583229 25.7479 0.0801659 25.6306 0.12141L1.29217 7.74654C0.827788 7.89202 0.511719 8.32227 0.511719 8.8089V29.3191C0.511719 44.2607 11.1169 57.0997 25.7897 59.9214ZM25.9999 2.33898L49.2616 9.62675V29.3191C49.2616 43.1217 39.5153 54.992 25.9999 57.6936C12.4846 54.992 2.73828 43.1217 2.73828 29.3191V9.62675L25.9999 2.33898Z" fill="#FF744F"/>
<path fill-rule="evenodd" clip-rule="evenodd" d="M25.7312 53.1912C25.9076 53.2351 26.0921 53.2351 26.2686 53.1912C37.2136 50.4699 44.9257 40.5331 44.9257 29.3192V13.6301C44.9257 13.1435 44.6096 12.7132 44.1452 12.5677L26.3328 6.98716C26.1161 6.91927 25.8838 6.91927 25.6671 6.98716L7.85467 12.5677C7.39029 12.7132 7.07422 13.1435 7.07422 13.6301V29.3192C7.07422 40.6495 14.8434 50.4823 25.7312 53.1912ZM26 50.9619C16.2404 48.4048 9.30078 39.528 9.30078 29.3192V14.4479L25.9999 9.21617L42.6991 14.4479V29.3192C42.6991 39.4226 35.8057 48.3936 26 50.9619Z" fill="#FF744F"/>
<path fill-rule="evenodd" clip-rule="evenodd" d="M23.084 38.4347C23.5188 38.8694 24.2237 38.8694 24.6585 38.4347L36.763 26.3302C37.1977 25.8954 37.1977 25.1905 36.763 24.7558L32.7855 20.7783C32.5767 20.5695 32.2936 20.4522 31.9983 20.4522C31.703 20.4522 31.4199 20.5695 31.2111 20.7783L23.8713 28.1181L20.7886 25.0354C20.5798 24.8266 20.2966 24.7093 20.0014 24.7093C19.7061 24.7093 19.4229 24.8266 19.2142 25.0354L15.2367 29.0129C14.802 29.4477 14.802 30.1526 15.2367 30.5873L23.084 38.4347ZM17.5983 29.8001L20.0014 27.397L23.084 30.4798C23.2928 30.6885 23.576 30.8058 23.8712 30.8058C24.1665 30.8058 24.4497 30.6886 24.6585 30.4798L31.9983 23.1399L34.4013 25.543L23.8712 36.073L17.5983 29.8001Z" fill="#FF744F"/>
</svg>
