<svg xmlns="http://www.w3.org/2000/svg" width="60" height="60" viewBox="0 0 60 60" fill="none">
<g clip-path="url(#clip0_2244_5092)">
<path d="M59.1578 29.8182L55.6958 14.2371C55.1392 11.742 52.9663 10.0001 50.4127 10.0001C47.4293 10.0001 45 12.4281 45 15.4115V16.2501C45 16.941 45.5591 17.5001 46.25 17.5001C46.941 17.5001 47.5001 16.941 47.5001 16.2501V15.4115C47.5001 13.8063 48.8062 12.5001 50.4127 12.5001C51.7871 12.5001 52.9566 13.4388 53.2545 14.7803L56.7164 30.3602C57.1458 32.2967 57.3999 34.2679 57.4757 36.25H57.3737C56.7361 29.9512 51.4642 25 45 25C39.3483 25 34.6157 28.7951 33.0752 33.9529C32.3104 33.1465 31.3023 32.5 30 32.5C28.6977 32.5 27.6896 33.1465 26.9248 33.9529C25.3843 28.7951 20.6517 25 15 25C8.53594 25 3.26402 29.9512 2.62629 36.25H2.52434C2.60014 34.2679 2.85425 32.2967 3.28359 30.3602L6.74555 14.7815C7.04344 13.4388 8.21285 12.5 9.58734 12.5C11.1937 12.5 12.4999 13.8061 12.4999 15.4114V16.25C12.4998 16.4141 12.5321 16.5767 12.5949 16.7285C12.6576 16.8802 12.7497 17.018 12.8658 17.1341C12.9819 17.2502 13.1198 17.3423 13.2715 17.4051C13.4232 17.4678 13.5858 17.5001 13.75 17.5C13.9141 17.5001 14.0767 17.4678 14.2285 17.4051C14.3802 17.3423 14.518 17.2502 14.6341 17.1341C14.7502 17.018 14.8423 16.8802 14.9051 16.7285C14.9678 16.5767 15.0001 16.4141 15 16.25V15.4114C15 12.428 12.5708 10 9.58734 10C7.03359 10 4.86082 11.742 4.30418 14.2383L0.842344 29.8182C0.28326 32.3406 0.000810432 34.9164 2.69535e-07 37.5C-0.000107582 37.6642 0.032152 37.8268 0.0949342 37.9785C0.157716 38.1302 0.249789 38.2681 0.365888 38.3842C0.481986 38.5003 0.619832 38.5924 0.771542 38.6551C0.923253 38.7179 1.08585 38.7502 1.25004 38.7501H2.62641C3.26402 45.0489 8.53594 50.0001 15.0001 50.0001C21.7857 50.0001 27.2991 44.5566 27.4686 37.8112C27.7198 37.1123 28.7187 35.0001 30.0001 35.0001C31.2486 35.0001 32.2349 36.9946 32.5312 37.8074C32.6988 44.5546 38.2133 50.0001 45.0001 50.0001C51.4642 50.0001 56.7361 45.0489 57.3738 38.7501H58.7502C58.9144 38.7502 59.077 38.7179 59.2287 38.6551C59.3804 38.5924 59.5182 38.5003 59.6343 38.3842C59.7504 38.2681 59.8425 38.1302 59.9053 37.9785C59.9681 37.8268 60.0003 37.6642 60.0002 37.5C59.9992 34.9164 59.7167 32.3406 59.1578 29.8182ZM15 47.5C9.48481 47.5 5.00004 43.0139 5.00004 37.5C5.00004 31.9861 9.48492 27.5001 15 27.5001C20.5151 27.5001 25 31.9861 25 37.5C25 43.0139 20.5152 47.5 15 47.5ZM45 47.5C39.4848 47.5 35 43.0139 35 37.5C35 31.9861 39.4849 27.5001 45 27.5001C50.5151 27.5001 55 31.9861 55 37.5C55 43.0139 50.5152 47.5 45 47.5Z" fill="#FF744F"/>
<path d="M15 30C10.8642 30 7.5 33.3642 7.5 37.5C7.49989 37.6642 7.53215 37.8268 7.59493 37.9785C7.65772 38.1302 7.74979 38.2681 7.86589 38.3842C7.98199 38.5003 8.11983 38.5923 8.27154 38.6551C8.42325 38.7179 8.58585 38.7501 8.75004 38.75C8.91423 38.7501 9.07683 38.7179 9.22854 38.6551C9.38025 38.5923 9.51809 38.5003 9.63419 38.3842C9.75029 38.2681 9.84236 38.1302 9.90514 37.9785C9.96793 37.8268 10.0002 37.6642 10.0001 37.5C10.0001 34.7425 12.2438 32.5 15.0001 32.5C15.1643 32.5001 15.3269 32.4678 15.4786 32.405C15.6303 32.3422 15.7682 32.2502 15.8843 32.1341C16.0004 32.018 16.0924 31.8801 16.1552 31.7284C16.218 31.5767 16.2503 31.4141 16.2502 31.2499C16.2502 31.0857 16.2179 30.9232 16.1551 30.7715C16.0923 30.6198 16.0002 30.482 15.8841 30.3659C15.768 30.2498 15.6302 30.1577 15.4785 30.095C15.3268 30.0322 15.1642 29.9999 15 30ZM45 30C40.8642 30 37.5 33.3642 37.5 37.5C37.4999 37.6642 37.5322 37.8268 37.5949 37.9785C37.6577 38.1302 37.7498 38.2681 37.8659 38.3842C37.982 38.5003 38.1198 38.5923 38.2715 38.6551C38.4233 38.7179 38.5858 38.7501 38.75 38.75C38.9142 38.7501 39.0768 38.7179 39.2285 38.6551C39.3802 38.5923 39.5181 38.5003 39.6342 38.3842C39.7503 38.2681 39.8424 38.1302 39.9051 37.9785C39.9679 37.8268 40.0002 37.6642 40.0001 37.5C40.0001 34.7425 42.2438 32.5 45.0001 32.5C45.1643 32.5001 45.3269 32.4678 45.4786 32.405C45.6303 32.3422 45.7682 32.2502 45.8843 32.1341C46.0004 32.018 46.0924 31.8801 46.1552 31.7284C46.218 31.5767 46.2503 31.4141 46.2502 31.2499C46.2502 31.0857 46.2179 30.9232 46.1551 30.7715C46.0923 30.6198 46.0002 30.482 45.8841 30.3659C45.768 30.2498 45.6302 30.1577 45.4785 30.095C45.3268 30.0322 45.1642 29.9999 45 30Z" fill="#FF744F"/>
</g>
<defs>
<clipPath id="clip0_2244_5092">
<rect width="60" height="60" fill="white"/>
</clipPath>
</defs>
</svg>