<svg width="60" height="40" viewBox="0 0 60 40" fill="none" xmlns="http://www.w3.org/2000/svg">
<path d="M59.1578 19.8182L55.6958 4.23715C55.1392 1.74199 52.9663 0.000117123 50.4127 0.000117123C47.4293 0.000117123 45 2.42813 45 5.41148V6.25008C45 6.94102 45.5591 7.50012 46.25 7.50012C46.941 7.50012 47.5001 6.94102 47.5001 6.25008V5.41148C47.5001 3.80625 48.8062 2.50008 50.4127 2.50008C51.7871 2.50008 52.9566 3.43875 53.2545 4.78031L56.7164 20.3602C57.1458 22.2967 57.3999 24.2679 57.4757 26.25H57.3737C56.7361 19.9512 51.4642 15 45 15C39.3483 15 34.6157 18.7951 33.0752 23.9529C32.3104 23.1465 31.3023 22.5 30 22.5C28.6977 22.5 27.6896 23.1465 26.9248 23.9529C25.3843 18.7951 20.6517 15 15 15C8.53594 15 3.26402 19.9512 2.62629 26.25H2.52434C2.60014 24.2679 2.85425 22.2967 3.28359 20.3602L6.74555 4.78148C7.04344 3.43875 8.21285 2.49996 9.58734 2.49996C11.1937 2.49996 12.4999 3.80613 12.4999 5.41137V6.24996C12.4998 6.41415 12.5321 6.57675 12.5949 6.72846C12.6576 6.88017 12.7497 7.01801 12.8658 7.13411C12.9819 7.25021 13.1198 7.34228 13.2715 7.40507C13.4232 7.46785 13.5858 7.50011 13.75 7.5C13.9141 7.50011 14.0767 7.46785 14.2285 7.40507C14.3802 7.34228 14.518 7.25021 14.6341 7.13411C14.7502 7.01801 14.8423 6.88017 14.9051 6.72846C14.9678 6.57675 15.0001 6.41415 15 6.24996V5.41137C15 2.42801 12.5708 0 9.58734 0C7.03359 0 4.86082 1.74199 4.30418 4.23832L0.842344 19.8182C0.28326 22.3406 0.000810432 24.9164 2.69535e-07 27.5C-0.000107582 27.6642 0.032152 27.8268 0.0949342 27.9785C0.157716 28.1302 0.249789 28.2681 0.365888 28.3842C0.481986 28.5003 0.619832 28.5924 0.771542 28.6551C0.923253 28.7179 1.08585 28.7502 1.25004 28.7501H2.62641C3.26402 35.0489 8.53594 40.0001 15.0001 40.0001C21.7857 40.0001 27.2991 34.5566 27.4686 27.8112C27.7198 27.1123 28.7187 25.0001 30.0001 25.0001C31.2486 25.0001 32.2349 26.9946 32.5312 27.8074C32.6988 34.5546 38.2133 40.0001 45.0001 40.0001C51.4642 40.0001 56.7361 35.0489 57.3738 28.7501H58.7502C58.9144 28.7502 59.077 28.7179 59.2287 28.6551C59.3804 28.5924 59.5182 28.5003 59.6343 28.3842C59.7504 28.2681 59.8425 28.1302 59.9053 27.9785C59.9681 27.8268 60.0003 27.6642 60.0002 27.5C59.9992 24.9164 59.7167 22.3406 59.1578 19.8182ZM15 37.5C9.48481 37.5 5.00004 33.0139 5.00004 27.5C5.00004 21.9861 9.48492 17.5001 15 17.5001C20.5151 17.5001 25 21.9861 25 27.5C25 33.0139 20.5152 37.5 15 37.5ZM45 37.5C39.4848 37.5 35 33.0139 35 27.5C35 21.9861 39.4849 17.5001 45 17.5001C50.5151 17.5001 55 21.9861 55 27.5C55 33.0139 50.5152 37.5 45 37.5Z" fill="#FF744F"/>
<path d="M15 20C10.8642 20 7.5 23.3642 7.5 27.5C7.49989 27.6642 7.53215 27.8268 7.59493 27.9785C7.65772 28.1302 7.74979 28.2681 7.86589 28.3842C7.98199 28.5003 8.11983 28.5923 8.27154 28.6551C8.42325 28.7179 8.58585 28.7501 8.75004 28.75C8.91423 28.7501 9.07683 28.7179 9.22854 28.6551C9.38025 28.5923 9.51809 28.5003 9.63419 28.3842C9.75029 28.2681 9.84236 28.1302 9.90514 27.9785C9.96793 27.8268 10.0002 27.6642 10.0001 27.5C10.0001 24.7425 12.2438 22.5 15.0001 22.5C15.1643 22.5001 15.3269 22.4678 15.4786 22.405C15.6303 22.3422 15.7682 22.2502 15.8843 22.1341C16.0004 22.018 16.0924 21.8801 16.1552 21.7284C16.218 21.5767 16.2503 21.4141 16.2502 21.2499C16.2502 21.0857 16.2179 20.9232 16.1551 20.7715C16.0923 20.6198 16.0002 20.482 15.8841 20.3659C15.768 20.2498 15.6302 20.1577 15.4785 20.095C15.3268 20.0322 15.1642 19.9999 15 20ZM45 20C40.8642 20 37.5 23.3642 37.5 27.5C37.4999 27.6642 37.5322 27.8268 37.5949 27.9785C37.6577 28.1302 37.7498 28.2681 37.8659 28.3842C37.982 28.5003 38.1198 28.5923 38.2715 28.6551C38.4233 28.7179 38.5858 28.7501 38.75 28.75C38.9142 28.7501 39.0768 28.7179 39.2285 28.6551C39.3802 28.5923 39.5181 28.5003 39.6342 28.3842C39.7503 28.2681 39.8424 28.1302 39.9051 27.9785C39.9679 27.8268 40.0002 27.6642 40.0001 27.5C40.0001 24.7425 42.2438 22.5 45.0001 22.5C45.1643 22.5001 45.3269 22.4678 45.4786 22.405C45.6303 22.3422 45.7682 22.2502 45.8843 22.1341C46.0004 22.018 46.0924 21.8801 46.1552 21.7284C46.218 21.5767 46.2503 21.4141 46.2502 21.2499C46.2502 21.0857 46.2179 20.9232 46.1551 20.7715C46.0923 20.6198 46.0002 20.482 45.8841 20.3659C45.768 20.2498 45.6302 20.1577 45.4785 20.095C45.3268 20.0322 45.1642 19.9999 45 20Z" fill="#FF744F"/>
</svg>
