<svg width="60" height="60" viewBox="0 0 60 60" fill="none" xmlns="http://www.w3.org/2000/svg">
<path d="M46.7857 39.3729C50.5719 35.2876 52.8904 29.8238 52.8904 23.8277C52.8903 11.2061 42.6219 0.9375 30.0001 0.9375C17.3783 0.9375 7.10986 11.2061 7.10986 23.8277C7.10986 30.2858 9.79908 36.1269 14.1153 40.2926L8.47381 52.4099C8.40147 52.5652 8.37309 52.7374 8.39174 52.9077C8.41039 53.078 8.47536 53.24 8.57959 53.376C8.68383 53.512 8.82334 53.6168 8.98297 53.6791C9.14259 53.7413 9.31623 53.7587 9.48502 53.7292L16.4082 52.5195L19.9393 58.5961C20.0254 58.7443 20.1504 58.8661 20.3008 58.9482C20.4512 59.0303 20.6212 59.0696 20.7924 59.0618C20.9636 59.054 21.1294 58.9995 21.2717 58.9041C21.4141 58.8087 21.5276 58.6761 21.5999 58.5207L27.176 46.5437C28.1017 46.6581 29.044 46.718 30.0001 46.718C31.3753 46.718 32.7225 46.5959 34.0316 46.3623L38.2401 56.1335C38.3079 56.2909 38.4175 56.4267 38.557 56.5261C38.6966 56.6256 38.8607 56.6849 39.0316 56.6976C39.2025 56.7103 39.3735 56.6759 39.5263 56.5982C39.679 56.5205 39.8075 56.4024 39.8978 56.2568L43.6036 50.2852L50.4886 51.6952C50.6564 51.7297 50.8305 51.7175 50.9919 51.6599C51.1533 51.6023 51.2958 51.5015 51.4038 51.3684C51.5119 51.2356 51.5816 51.0756 51.6052 50.9059C51.6288 50.7362 51.6055 50.5633 51.5378 50.406L46.7857 39.3729ZM20.6581 56.1011L17.7012 51.0124C17.6048 50.8468 17.4599 50.7146 17.2862 50.6337C17.1124 50.5528 16.918 50.5271 16.7292 50.56L10.9317 51.5731L15.5795 41.5902C18.3459 43.8404 21.6457 45.4586 25.2573 46.2225L20.6581 56.1011ZM8.98486 23.8277C8.98486 12.2399 18.4122 2.8125 30.0001 2.8125C41.588 2.8125 51.0153 12.2399 51.0153 23.8277C51.0153 35.4156 41.588 44.843 30.0001 44.843C18.4122 44.843 8.98486 35.4156 8.98486 23.8277ZM43.3395 48.3175C43.1518 48.2789 42.9566 48.2988 42.7806 48.3747C42.6045 48.4505 42.4559 48.5786 42.3549 48.7416L39.2517 53.7422L35.8944 45.9472C39.4639 44.9952 42.6933 43.2011 45.3544 40.7898L49.1051 49.4982L43.3395 48.3175ZM45.756 30.2793C45.7111 29.904 45.6692 29.5702 45.6316 29.2704C45.4788 28.0523 45.4022 27.4412 45.4875 26.9577C45.5728 26.4743 45.8538 25.926 46.414 24.8338C46.5518 24.565 46.7053 24.2655 46.8757 23.9284C47.7643 22.1705 47.3963 20.0836 45.9601 18.7356C45.6846 18.477 45.4379 18.2482 45.2164 18.0427C44.3165 17.2078 43.8648 16.7889 43.6194 16.3637C43.374 15.9387 43.2369 15.338 42.964 14.1413C42.8967 13.8466 42.8219 13.5188 42.7357 13.1508C42.2865 11.2329 40.6631 9.87082 38.6964 9.76137C38.3191 9.74027 37.9831 9.72363 37.6814 9.70863C36.4554 9.64758 35.84 9.61699 35.3787 9.44906C34.9174 9.28102 34.4263 8.90906 33.4479 8.16773C33.178 7.96286 32.9076 7.75883 32.6365 7.55566C31.0595 6.37535 28.9406 6.37535 27.3635 7.55566C27.0609 7.78207 26.7928 7.98527 26.552 8.16773C25.5736 8.90895 25.0824 9.28102 24.6212 9.44906C24.1598 9.61699 23.5445 9.64746 22.3186 9.70863C22.0168 9.72363 21.6808 9.74039 21.3036 9.76137C19.3369 9.87082 17.7136 11.2329 17.2643 13.1508C17.1781 13.5186 17.1033 13.8466 17.0361 14.1411C16.7631 15.3379 16.626 15.9386 16.3806 16.3637C16.1352 16.7889 15.6834 17.2078 14.7837 18.0425C14.535 18.2728 14.2871 18.5038 14.0399 18.7356C12.6036 20.0836 12.2356 22.1705 13.1243 23.9284C13.2948 24.2655 13.4482 24.565 13.586 24.8338C14.1462 25.926 14.4273 26.4743 14.5125 26.9577C14.5978 27.4412 14.521 28.0525 14.3683 29.2704C14.3307 29.5703 14.2889 29.904 14.244 30.2793C14.0102 32.235 15.0697 34.0702 16.8805 34.8457C17.2278 34.9945 17.5379 35.1252 17.8163 35.2425C18.9474 35.7191 19.5152 35.9584 19.8913 36.274C20.2673 36.5896 20.6015 37.1071 21.2674 38.1383C21.4312 38.3922 21.6138 38.6747 21.8206 38.991C22.6535 40.2645 24.0312 40.9867 25.4842 40.9866C25.912 40.9866 26.3467 40.9239 26.7756 40.7943C27.1372 40.6849 27.4587 40.5858 27.7473 40.4967C28.9202 40.1347 29.509 39.9531 29.9999 39.9531C30.4908 39.9531 31.0795 40.1347 32.2526 40.4967C32.5412 40.5858 32.8628 40.6849 33.2243 40.7943C35.1097 41.3641 37.1011 40.6395 38.1792 38.9909C38.386 38.6746 38.5685 38.392 38.7324 38.1382C39.3983 37.107 39.7325 36.5893 40.1086 36.2739C40.4846 35.9584 41.0524 35.7191 42.1835 35.2424C42.4619 35.1251 42.772 34.9944 43.1194 34.8456C44.9303 34.0702 45.9897 32.235 45.756 30.2793ZM44.7456 23.9781C43.456 26.4929 43.4196 26.6995 43.7713 29.5036C43.8084 29.8001 43.8499 30.1304 43.8942 30.5017C44.0305 31.6416 43.4366 32.6701 42.3813 33.1221C42.0376 33.2693 41.7309 33.3984 41.4554 33.5146C38.8512 34.612 38.6905 34.7469 37.1574 37.121C36.9759 37.4028 36.7935 37.6839 36.6102 37.9645C35.9819 38.9252 34.8658 39.3315 33.7669 38.9993C33.4091 38.8911 33.091 38.7931 32.8054 38.7049C30.105 37.8716 29.8952 37.8715 27.1946 38.7049C26.909 38.7931 26.591 38.8911 26.2332 38.9993C25.1341 39.3318 24.0183 38.9252 23.3899 37.9645C23.1853 37.6518 23.0047 37.372 22.8426 37.121C21.3096 34.7468 21.1489 34.612 18.5447 33.5146C18.2692 33.3986 17.9625 33.2693 17.6188 33.1221C16.5635 32.6701 15.9696 31.6414 16.1059 30.5017C16.1502 30.1304 16.1917 29.8002 16.2289 29.5036C16.5806 26.6994 16.5442 26.4929 15.2546 23.9781C15.1182 23.7121 14.9665 23.4159 14.7978 23.0823C14.28 22.0579 14.4861 20.8882 15.3232 20.1026C15.5959 19.8466 15.8399 19.6204 16.059 19.417C18.1308 17.495 18.2356 17.3134 18.8642 14.558C18.9307 14.2666 19.0047 13.9421 19.0899 13.5782C19.3517 12.4604 20.2616 11.697 21.4078 11.6332C21.781 11.6125 22.1134 11.5959 22.4119 11.5811C25.2346 11.4405 25.4317 11.3687 27.6844 9.66211C27.9226 9.48164 28.1879 9.28066 28.4872 9.0566C28.9467 8.71266 29.4735 8.54074 30.0001 8.54074C30.5267 8.54074 31.0534 8.71277 31.513 9.0566C31.8123 9.28055 32.0775 9.48164 32.3157 9.66211C34.5684 11.3687 34.7655 11.4405 37.5882 11.5811C37.8867 11.5959 38.2192 11.6126 38.5923 11.6332C39.7385 11.697 40.6483 12.4604 40.9101 13.5782C40.9955 13.9421 41.0694 14.2668 41.136 14.5581C41.7646 17.3134 41.8694 17.495 43.9413 19.417C44.1604 19.6204 44.4044 19.8468 44.677 20.1026C45.5141 20.8882 45.7202 22.0579 45.2024 23.0823C45.0511 23.3814 44.8988 23.68 44.7456 23.9781ZM38.043 20.7019L33.0295 20.4574L31.2479 15.7649C31.0497 15.2428 30.5599 14.9054 30.0001 14.9054C29.4402 14.9054 28.9503 15.2428 28.7523 15.7649L26.9707 20.4574L21.9573 20.7019C21.3985 20.7289 20.9257 21.0902 20.7527 21.6224C20.5797 22.1545 20.7498 22.7248 21.1858 23.0754L25.0981 26.2199L23.7813 31.0635C23.6346 31.6032 23.8323 32.1646 24.2849 32.4934C24.5124 32.66 24.7869 32.75 25.0688 32.7505C25.3221 32.7505 25.5759 32.6773 25.8003 32.5303L30.0001 29.7814L34.1997 32.5305C34.6679 32.837 35.2628 32.8222 35.7154 32.4936C36.168 32.1647 36.3656 31.6034 36.2188 31.0637L34.9021 26.2201L38.8145 23.0756C39.2505 22.725 39.4205 22.1548 39.2475 21.6226C39.0745 21.0905 38.6017 20.7291 38.043 20.7019ZM29.495 16.4305C29.495 16.4304 29.495 16.4304 29.495 16.4305V16.4305ZM33.4517 24.9802C33.2493 25.1428 33.0986 25.361 33.0184 25.608C32.9381 25.8549 32.9317 26.12 32.9999 26.3706L34.0362 30.1825L30.7311 28.0191C30.5138 27.8768 30.2598 27.801 30.0001 27.8009C29.7403 27.8009 29.4863 27.8767 29.269 28.0189L25.9638 30.1825L27.0003 26.3701C27.0683 26.1196 27.0618 25.8546 26.9815 25.6078C26.9012 25.3609 26.7507 25.1428 26.5483 24.9802L23.4694 22.5054L27.4146 22.313C27.6741 22.3005 27.9243 22.2125 28.1345 22.0599C28.3447 21.9072 28.5058 21.6965 28.5979 21.4536L30.0001 17.7607L31.4022 21.4539C31.4944 21.6967 31.6554 21.9073 31.8655 22.0599C32.0757 22.2125 32.3257 22.3005 32.5851 22.3131L36.5307 22.5055L33.4517 24.9802Z" fill="#FF744F"/>
</svg>
