<svg width="46" height="60" viewBox="0 0 46 60" fill="none" xmlns="http://www.w3.org/2000/svg">
<path d="M39.7857 39.3729C43.5719 35.2876 45.8904 29.8238 45.8904 23.8277C45.8903 11.2061 35.6219 0.9375 23.0001 0.9375C10.3783 0.9375 0.109863 11.2061 0.109863 23.8277C0.109863 30.2858 2.79908 36.1269 7.11533 40.2926L1.47381 52.4099C1.40147 52.5652 1.37309 52.7374 1.39174 52.9077C1.41039 53.078 1.47536 53.24 1.57959 53.376C1.68383 53.512 1.82334 53.6168 1.98297 53.6791C2.14259 53.7413 2.31623 53.7587 2.48502 53.7292L9.40822 52.5195L12.9393 58.5961C13.0254 58.7443 13.1504 58.8661 13.3008 58.9482C13.4512 59.0303 13.6212 59.0696 13.7924 59.0618C13.9636 59.054 14.1294 58.9995 14.2717 58.9041C14.4141 58.8087 14.5276 58.6761 14.5999 58.5207L20.176 46.5437C21.1017 46.6581 22.044 46.718 23.0001 46.718C24.3753 46.718 25.7225 46.5959 27.0316 46.3623L31.2401 56.1335C31.3079 56.2909 31.4175 56.4267 31.557 56.5261C31.6966 56.6256 31.8607 56.6849 32.0316 56.6976C32.2025 56.7103 32.3735 56.6759 32.5263 56.5982C32.679 56.5205 32.8075 56.4024 32.8978 56.2568L36.6036 50.2852L43.4886 51.6952C43.6564 51.7297 43.8305 51.7175 43.9919 51.6599C44.1533 51.6023 44.2958 51.5015 44.4038 51.3684C44.5119 51.2356 44.5816 51.0756 44.6052 50.9059C44.6288 50.7362 44.6055 50.5633 44.5378 50.406L39.7857 39.3729ZM13.6581 56.1011L10.7012 51.0124C10.6048 50.8468 10.4599 50.7146 10.2862 50.6337C10.1124 50.5528 9.91803 50.5271 9.7292 50.56L3.9317 51.5731L8.57947 41.5902C11.3459 43.8404 14.6457 45.4586 18.2573 46.2225L13.6581 56.1011ZM1.98486 23.8277C1.98486 12.2399 11.4122 2.8125 23.0001 2.8125C34.588 2.8125 44.0153 12.2399 44.0153 23.8277C44.0153 35.4156 34.588 44.843 23.0001 44.843C11.4122 44.843 1.98486 35.4156 1.98486 23.8277ZM36.3395 48.3175C36.1518 48.2789 35.9566 48.2988 35.7806 48.3747C35.6045 48.4505 35.4559 48.5786 35.3549 48.7416L32.2517 53.7422L28.8944 45.9472C32.4639 44.9952 35.6933 43.2011 38.3544 40.7898L42.1051 49.4982L36.3395 48.3175ZM38.756 30.2793C38.7111 29.904 38.6692 29.5702 38.6316 29.2704C38.4788 28.0523 38.4022 27.4412 38.4875 26.9577C38.5728 26.4743 38.8538 25.926 39.414 24.8338C39.5518 24.565 39.7053 24.2655 39.8757 23.9284C40.7643 22.1705 40.3963 20.0836 38.9601 18.7356C38.6846 18.477 38.4379 18.2482 38.2164 18.0427C37.3165 17.2078 36.8648 16.7889 36.6194 16.3637C36.374 15.9387 36.2369 15.338 35.964 14.1413C35.8967 13.8466 35.8219 13.5188 35.7357 13.1508C35.2865 11.2329 33.6631 9.87082 31.6964 9.76137C31.3191 9.74027 30.9831 9.72363 30.6814 9.70863C29.4554 9.64758 28.84 9.61699 28.3787 9.44906C27.9174 9.28102 27.4263 8.90906 26.4479 8.16773C26.178 7.96286 25.9076 7.75883 25.6365 7.55566C24.0595 6.37535 21.9406 6.37535 20.3635 7.55566C20.0609 7.78207 19.7928 7.98527 19.552 8.16773C18.5736 8.90895 18.0824 9.28102 17.6212 9.44906C17.1598 9.61699 16.5445 9.64746 15.3186 9.70863C15.0168 9.72363 14.6808 9.74039 14.3036 9.76137C12.3369 9.87082 10.7136 11.2329 10.2643 13.1508C10.1781 13.5186 10.1033 13.8466 10.0361 14.1411C9.76307 15.3379 9.62596 15.9386 9.38057 16.3637C9.13518 16.7889 8.68342 17.2078 7.78365 18.0425C7.53501 18.2728 7.28708 18.5038 7.03986 18.7356C5.60361 20.0836 5.23564 22.1705 6.12428 23.9284C6.29479 24.2655 6.44818 24.565 6.586 24.8338C7.14615 25.926 7.42729 26.4743 7.51248 26.9577C7.59779 27.4412 7.52104 28.0525 7.36834 29.2704C7.33072 29.5703 7.28889 29.904 7.244 30.2793C7.01021 32.235 8.06971 34.0702 9.88049 34.8457C10.2278 34.9945 10.5379 35.1252 10.8163 35.2425C11.9474 35.7191 12.5152 35.9584 12.8913 36.274C13.2673 36.5896 13.6015 37.1071 14.2674 38.1383C14.4312 38.3922 14.6138 38.6747 14.8206 38.991C15.6535 40.2645 17.0312 40.9867 18.4842 40.9866C18.912 40.9866 19.3467 40.9239 19.7756 40.7943C20.1372 40.6849 20.4587 40.5858 20.7473 40.4967C21.9202 40.1347 22.509 39.9531 22.9999 39.9531C23.4908 39.9531 24.0795 40.1347 25.2526 40.4967C25.5412 40.5858 25.8628 40.6849 26.2243 40.7943C28.1097 41.3641 30.1011 40.6395 31.1792 38.9909C31.386 38.6746 31.5685 38.392 31.7324 38.1382C32.3983 37.107 32.7325 36.5893 33.1086 36.2739C33.4846 35.9584 34.0524 35.7191 35.1835 35.2424C35.4619 35.1251 35.772 34.9944 36.1194 34.8456C37.9303 34.0702 38.9897 32.235 38.756 30.2793ZM37.7456 23.9781C36.456 26.4929 36.4196 26.6995 36.7713 29.5036C36.8084 29.8001 36.8499 30.1304 36.8942 30.5017C37.0305 31.6416 36.4366 32.6701 35.3813 33.1221C35.0376 33.2693 34.7309 33.3984 34.4554 33.5146C31.8512 34.612 31.6905 34.7469 30.1574 37.121C29.9759 37.4028 29.7935 37.6839 29.6102 37.9645C28.9819 38.9252 27.8658 39.3315 26.7669 38.9993C26.4091 38.8911 26.091 38.7931 25.8054 38.7049C23.105 37.8716 22.8952 37.8715 20.1946 38.7049C19.909 38.7931 19.591 38.8911 19.2332 38.9993C18.1341 39.3318 17.0183 38.9252 16.3899 37.9645C16.1853 37.6518 16.0047 37.372 15.8426 37.121C14.3096 34.7468 14.1489 34.612 11.5447 33.5146C11.2692 33.3986 10.9625 33.2693 10.6188 33.1221C9.5635 32.6701 8.96959 31.6414 9.10588 30.5017C9.15018 30.1304 9.19166 29.8002 9.22892 29.5036C9.5806 26.6994 9.54416 26.4929 8.25463 23.9781C8.11822 23.7121 7.96647 23.4159 7.79783 23.0823C7.27998 22.0579 7.48611 20.8882 8.32318 20.1026C8.59588 19.8466 8.83986 19.6204 9.059 19.417C11.1308 17.495 11.2356 17.3134 11.8642 14.558C11.9307 14.2666 12.0047 13.9421 12.0899 13.5782C12.3517 12.4604 13.2616 11.697 14.4078 11.6332C14.781 11.6125 15.1134 11.5959 15.4119 11.5811C18.2346 11.4405 18.4317 11.3687 20.6844 9.66211C20.9226 9.48164 21.1879 9.28066 21.4872 9.0566C21.9467 8.71266 22.4735 8.54074 23.0001 8.54074C23.5267 8.54074 24.0534 8.71277 24.513 9.0566C24.8123 9.28055 25.0775 9.48164 25.3157 9.66211C27.5684 11.3687 27.7655 11.4405 30.5882 11.5811C30.8867 11.5959 31.2192 11.6126 31.5923 11.6332C32.7385 11.697 33.6483 12.4604 33.9101 13.5782C33.9955 13.9421 34.0694 14.2668 34.136 14.5581C34.7646 17.3134 34.8694 17.495 36.9413 19.417C37.1604 19.6204 37.4044 19.8468 37.677 20.1026C38.5141 20.8882 38.7202 22.0579 38.2024 23.0823C38.0511 23.3814 37.8988 23.68 37.7456 23.9781ZM31.043 20.7019L26.0295 20.4574L24.2479 15.7649C24.0497 15.2428 23.5599 14.9054 23.0001 14.9054C22.4402 14.9054 21.9503 15.2428 21.7523 15.7649L19.9707 20.4574L14.9573 20.7019C14.3985 20.7289 13.9257 21.0902 13.7527 21.6224C13.5797 22.1545 13.7498 22.7248 14.1858 23.0754L18.0981 26.2199L16.7813 31.0635C16.6346 31.6032 16.8323 32.1646 17.2849 32.4934C17.5124 32.66 17.7869 32.75 18.0688 32.7505C18.3221 32.7505 18.5759 32.6773 18.8003 32.5303L23.0001 29.7814L27.1997 32.5305C27.6679 32.837 28.2628 32.8222 28.7154 32.4936C29.168 32.1647 29.3656 31.6034 29.2188 31.0637L27.9021 26.2201L31.8145 23.0756C32.2505 22.725 32.4205 22.1548 32.2475 21.6226C32.0745 21.0905 31.6017 20.7291 31.043 20.7019ZM22.495 16.4305C22.495 16.4304 22.495 16.4304 22.495 16.4305V16.4305ZM26.4517 24.9802C26.2493 25.1428 26.0986 25.361 26.0184 25.608C25.9381 25.8549 25.9317 26.12 25.9999 26.3706L27.0362 30.1825L23.7311 28.0191C23.5138 27.8768 23.2598 27.801 23.0001 27.8009C22.7403 27.8009 22.4863 27.8767 22.269 28.0189L18.9638 30.1825L20.0003 26.3701C20.0683 26.1196 20.0618 25.8546 19.9815 25.6078C19.9012 25.3609 19.7507 25.1428 19.5483 24.9802L16.4694 22.5054L20.4146 22.313C20.6741 22.3005 20.9243 22.2125 21.1345 22.0599C21.3447 21.9072 21.5058 21.6965 21.5979 21.4536L23.0001 17.7607L24.4022 21.4539C24.4944 21.6967 24.6554 21.9073 24.8655 22.0599C25.0757 22.2125 25.3257 22.3005 25.5851 22.3131L29.5307 22.5055L26.4517 24.9802Z" fill="#FF744F"/>
</svg>
