<svg xmlns="http://www.w3.org/2000/svg" width="60" height="60" viewBox="0 0 60 60" fill="none">
<path fill-rule="evenodd" clip-rule="evenodd" d="M29.7897 59.9214C29.9286 59.9481 30.0713 59.9481 30.2102 59.9214C44.8829 57.0997 55.4881 44.2607 55.4881 29.3191V8.8089C55.4881 8.32227 55.1721 7.89202 54.7077 7.74654L30.3693 0.121414C30.2519 0.0801697 30.1272 0.0583229 29.9999 0.0584679C29.8727 0.0583229 29.7479 0.0801659 29.6306 0.12141L5.29217 7.74654C4.82779 7.89202 4.51172 8.32227 4.51172 8.8089V29.3191C4.51172 44.2607 15.1169 57.0997 29.7897 59.9214ZM29.9999 2.33898L53.2616 9.62675V29.3191C53.2616 43.1217 43.5153 54.992 29.9999 57.6936C16.4846 54.992 6.73828 43.1217 6.73828 29.3191V9.62675L29.9999 2.33898Z" fill="#FF744F"/>
<path fill-rule="evenodd" clip-rule="evenodd" d="M29.7312 53.1912C29.9076 53.2351 30.0921 53.2351 30.2686 53.1912C41.2136 50.4699 48.9257 40.5331 48.9257 29.3192V13.6301C48.9257 13.1435 48.6096 12.7132 48.1452 12.5677L30.3328 6.98716C30.1161 6.91927 29.8838 6.91927 29.6671 6.98716L11.8547 12.5677C11.3903 12.7132 11.0742 13.1435 11.0742 13.6301V29.3192C11.0742 40.6495 18.8434 50.4823 29.7312 53.1912ZM30 50.9619C20.2404 48.4048 13.3008 39.528 13.3008 29.3192V14.4479L29.9999 9.21617L46.6991 14.4479V29.3192C46.6991 39.4226 39.8057 48.3936 30 50.9619Z" fill="#FF744F"/>
<path fill-rule="evenodd" clip-rule="evenodd" d="M27.084 38.4347C27.5188 38.8694 28.2237 38.8694 28.6585 38.4347L40.763 26.3302C41.1977 25.8954 41.1977 25.1905 40.763 24.7558L36.7855 20.7783C36.5767 20.5695 36.2936 20.4522 35.9983 20.4522C35.703 20.4522 35.4199 20.5695 35.2111 20.7783L27.8713 28.1181L24.7886 25.0354C24.5798 24.8266 24.2966 24.7093 24.0014 24.7093C23.7061 24.7093 23.4229 24.8266 23.2142 25.0354L19.2367 29.0129C18.802 29.4477 18.802 30.1526 19.2367 30.5873L27.084 38.4347ZM21.5983 29.8001L24.0014 27.397L27.084 30.4798C27.2928 30.6885 27.576 30.8058 27.8712 30.8058C28.1665 30.8058 28.4497 30.6886 28.6585 30.4798L35.9983 23.1399L38.4013 25.543L27.8712 36.073L21.5983 29.8001Z" fill="#FF744F"/>
</svg>