<svg width="98" height="120" viewBox="0 0 98 120" fill="none" xmlns="http://www.w3.org/2000/svg">
<path d="M98 120H0V0H98V120ZM4.32719 115.662H93.6728V4.338H4.32719V115.662Z" fill="#3F4F8B"/>
<path d="M89.3456 36.1356H8.65438V8.67601H89.3456V36.1356ZM12.9816 31.7976H85.0184V13.014H12.9816V31.7976Z" fill="#3F4F8B"/>
<path d="M21.5386 47.4143H8.55703V53.9214H21.5386V47.4143Z" fill="#3F4F8B"/>
<path d="M89.3456 47.3493H76.364V53.8563H89.3456V47.3493Z" fill="#3F4F8B"/>
<path d="M44.1373 47.3493H31.1557V53.8563H44.1373V47.3493Z" fill="#3F4F8B"/>
<path d="M21.6035 65.4713H8.62194V71.9783H21.6035V65.4713Z" fill="#3F4F8B"/>
<path d="M44.1806 65.4713H31.199V71.9783H44.1806V65.4713Z" fill="#3F4F8B"/>
<path d="M21.6035 83.5933H8.62194V90.1003H21.6035V83.5933Z" fill="#3F4F8B"/>
<path d="M44.8946 101.715H8.71929V108.222H44.8946V101.715Z" fill="#3F4F8B"/>
<path d="M44.1806 83.5933H31.199V90.1003H44.1806V83.5933Z" fill="#3F4F8B"/>
<path d="M66.7469 47.3493H53.7653V53.8563H66.7469V47.3493Z" fill="#3F4F8B"/>
<path d="M66.7685 65.4713H53.787V71.9783H66.7685V65.4713Z" fill="#3F4F8B"/>
<path d="M66.7685 83.5933H53.787V90.1003H66.7685V83.5933Z" fill="#3F4F8B"/>
<path d="M66.7036 101.715H53.7221V108.222H66.7036V101.715Z" fill="#3F4F8B"/>
<path d="M89.3456 65.4713H76.364V108.222H89.3456V65.4713Z" fill="#3F4F8B"/>
</svg>
