<svg width="167" height="45" viewBox="0 0 167 45" fill="none" xmlns="http://www.w3.org/2000/svg">
<path d="M57.013 11.1798L51.872 5.93945H45.6299L53.7616 14.7147L57.013 11.1798Z" fill="#FF744F"/>
<path d="M51.4817 4.66531L47.6178 0H17.6125L13.8398 4.66531H51.4817Z" fill="#FF744F"/>
<path d="M3.297 7.33789L0 11.1734L24.2062 39.7925L27.4055 35.957L3.297 7.33789Z" fill="#3F4F8B"/>
<path d="M49.3044 12.4932L25.0591 41.3671L28.2388 45.0001L52.621 16.0412L49.3044 12.4932Z" fill="#3F4F8B"/>
<path d="M7.48661 9.92522L15.7291 0H9.34362L4.3916 6.1028L7.48661 9.92522Z" fill="#3F4F8B"/>
<path d="M39.6872 21.8367C38.5274 19.6609 36.0319 18.4652 32.7023 18.4652H26.7859V13.5646H38.9249V10.1865H23.085V28.4427L25.6392 31.4875H31.4708L34.6245 27.7827C33.6737 28.0536 32.6867 28.1748 31.6989 28.1421H26.7859V21.608H32.37C35.1327 21.608 36.6769 22.6731 36.6769 24.7444C36.6754 24.9629 36.6601 25.1812 36.6313 25.3978L39.6872 21.8367Z" fill="#3F4F8B"/>
<path d="M32.1432 6.05029H17.854V22.2025L21.555 26.6129V9.11476H32.1432V6.05029Z" fill="#3F4F8B"/>
<path d="M77.3432 10.2009H72.8422V18.9999H71.1972V8.91992H77.3432V10.2009Z" fill="#272727"/>
<path d="M81.8747 18.9999H80.3697V13.0289H78.3817C78.3257 13.9203 78.2394 14.6903 78.1227 15.3389C78.0107 15.9829 77.8754 16.5289 77.7167 16.9769C77.558 17.4249 77.3807 17.7889 77.1847 18.0689C76.9887 18.3443 76.781 18.5589 76.5617 18.7129C76.3424 18.8669 76.116 18.9696 75.8827 19.0209C75.654 19.0723 75.423 19.0979 75.1897 19.0979C74.737 19.0979 74.5107 19.0233 74.5107 18.8739V17.9289H74.9027C75.0567 17.9289 75.213 17.9033 75.3717 17.8519C75.535 17.8006 75.6914 17.7003 75.8407 17.5509C75.99 17.3969 76.1324 17.1823 76.2677 16.9069C76.4077 16.6316 76.5337 16.2699 76.6457 15.8219C76.7624 15.3693 76.8627 14.8209 76.9467 14.1769C77.0307 13.5283 77.096 12.7559 77.1427 11.8599H81.8747V18.9999Z" fill="#272727"/>
<path d="M87.1709 15.8779C86.6342 15.8966 86.1815 15.9409 85.8129 16.0109C85.4442 16.0763 85.1455 16.1626 84.9169 16.2699C84.6882 16.3726 84.5225 16.4963 84.4199 16.6409C84.3219 16.7856 84.2729 16.9443 84.2729 17.1169C84.2729 17.2849 84.2985 17.4296 84.3499 17.5509C84.4059 17.6676 84.4805 17.7656 84.5739 17.8449C84.6719 17.9196 84.7839 17.9756 84.9099 18.0129C85.0405 18.0456 85.1829 18.0619 85.3369 18.0619C85.7289 18.0619 86.0649 17.9896 86.3449 17.8449C86.6295 17.6956 86.9049 17.4809 87.1709 17.2009V15.8779ZM83.1809 12.8539C83.9882 12.1026 84.9495 11.7269 86.0649 11.7269C86.4755 11.7269 86.8395 11.7946 87.1569 11.9299C87.4789 12.0606 87.7472 12.2473 87.9619 12.4899C88.1812 12.7326 88.3469 13.0219 88.4589 13.3579C88.5755 13.6893 88.6339 14.0579 88.6339 14.4639V18.9999H87.9619C87.8172 18.9999 87.7075 18.9789 87.6329 18.9369C87.5582 18.8903 87.4952 18.7993 87.4439 18.6639L87.2969 18.0829C87.1149 18.2463 86.9352 18.3933 86.7579 18.5239C86.5805 18.6499 86.3962 18.7573 86.2049 18.8459C86.0182 18.9346 85.8152 18.9999 85.5959 19.0419C85.3812 19.0886 85.1432 19.1119 84.8819 19.1119C84.5925 19.1119 84.3219 19.0723 84.0699 18.9929C83.8225 18.9136 83.6079 18.7946 83.4259 18.6359C83.2439 18.4726 83.0992 18.2719 82.9919 18.0339C82.8892 17.7959 82.8379 17.5159 82.8379 17.1939C82.8379 16.9186 82.9102 16.6503 83.0549 16.3889C83.2042 16.1276 83.4469 15.8943 83.7829 15.6889C84.1235 15.4789 84.5692 15.3063 85.1199 15.1709C85.6752 15.0356 86.3589 14.9586 87.1709 14.9399V14.4639C87.1709 13.9506 87.0612 13.5679 86.8419 13.3159C86.6225 13.0639 86.3005 12.9379 85.8759 12.9379C85.5865 12.9379 85.3439 12.9753 85.1479 13.0499C84.9519 13.1199 84.7815 13.1969 84.6369 13.2809C84.4922 13.3649 84.3639 13.4443 84.2519 13.5189C84.1399 13.5889 84.0209 13.6239 83.8949 13.6239C83.7922 13.6239 83.7035 13.5983 83.6289 13.5469C83.5589 13.4909 83.5005 13.4233 83.4539 13.3439L83.1809 12.8539Z" fill="#272727"/>
<path d="M92.8819 17.9569C93.2925 17.9569 93.6169 17.8589 93.8549 17.6629C94.0975 17.4623 94.2189 17.1939 94.2189 16.8579C94.2189 16.7133 94.1979 16.5779 94.1559 16.4519C94.1139 16.3259 94.0415 16.2186 93.9389 16.1299C93.8362 16.0366 93.6985 15.9643 93.5259 15.9129C93.3579 15.8616 93.1455 15.8359 92.8889 15.8359H91.4819V17.9569H92.8819ZM91.4819 12.8539V14.8909H92.7209C92.9075 14.8909 93.0779 14.8653 93.2319 14.8139C93.3905 14.7579 93.5259 14.6833 93.6379 14.5899C93.7545 14.4919 93.8432 14.3776 93.9039 14.2469C93.9692 14.1116 94.0019 13.9623 94.0019 13.7989C94.0019 13.6823 93.9809 13.5679 93.9389 13.4559C93.8969 13.3393 93.8245 13.2366 93.7219 13.1479C93.6239 13.0593 93.4932 12.9893 93.3299 12.9379C93.1665 12.8819 92.9635 12.8539 92.7209 12.8539H91.4819ZM92.7699 11.8599C93.2132 11.8599 93.5959 11.9043 93.9179 11.9929C94.2399 12.0769 94.5035 12.1959 94.7089 12.3499C94.9189 12.5039 95.0729 12.6859 95.1709 12.8959C95.2689 13.1059 95.3179 13.3323 95.3179 13.5749C95.3179 13.7289 95.2969 13.8899 95.2549 14.0579C95.2129 14.2259 95.1405 14.3869 95.0379 14.5409C94.9352 14.6903 94.7952 14.8279 94.6179 14.9539C94.4452 15.0799 94.2235 15.1779 93.9529 15.2479C94.4615 15.3413 94.8629 15.5279 95.1569 15.8079C95.4555 16.0833 95.6049 16.4519 95.6049 16.9139C95.6049 17.2686 95.5325 17.5766 95.3879 17.8379C95.2432 18.0993 95.0449 18.3163 94.7929 18.4889C94.5455 18.6616 94.2562 18.7899 93.9249 18.8739C93.5982 18.9579 93.2529 18.9999 92.8889 18.9999H90.0469V11.8599H92.7699Z" fill="#272727"/>
<path d="M102.773 11.8599V18.9999H101.275V15.7589H98.1882V18.9999H96.6832V11.8599H98.1882V14.6249H101.275V11.8599H102.773Z" fill="#272727"/>
<path d="M107.098 17.9079C107.317 17.9079 107.509 17.8799 107.672 17.8239C107.84 17.7633 107.978 17.6839 108.085 17.5859C108.197 17.4833 108.279 17.3619 108.33 17.2219C108.386 17.0819 108.414 16.9279 108.414 16.7599C108.414 16.6106 108.388 16.4706 108.337 16.3399C108.29 16.2046 108.213 16.0879 108.106 15.9899C108.003 15.8873 107.868 15.8079 107.7 15.7519C107.532 15.6913 107.327 15.6609 107.084 15.6609H105.691V17.9079H107.098ZM107.077 14.5759C107.572 14.5759 107.989 14.6366 108.33 14.7579C108.671 14.8746 108.946 15.0333 109.156 15.2339C109.366 15.4346 109.518 15.6679 109.611 15.9339C109.704 16.1953 109.751 16.4683 109.751 16.7529C109.751 17.0843 109.693 17.3876 109.576 17.6629C109.459 17.9336 109.287 18.1693 109.058 18.3699C108.834 18.5706 108.556 18.7269 108.225 18.8389C107.898 18.9463 107.523 18.9999 107.098 18.9999H104.263V11.8599H105.691V14.5759H107.077ZM112.677 11.8599V18.9999H111.172V11.8599H112.677Z" fill="#272727"/>
<path d="M120.446 11.8599V18.9999H118.941V14.5269C118.941 14.4289 118.945 14.3216 118.955 14.2049C118.964 14.0883 118.978 13.9693 118.997 13.8479C118.95 13.9506 118.903 14.0463 118.857 14.1349C118.815 14.2189 118.768 14.2959 118.717 14.3659L115.616 18.6289C115.56 18.7176 115.485 18.8039 115.392 18.8879C115.298 18.9673 115.193 19.0069 115.077 19.0069H114.167V11.8599H115.672V16.3329C115.672 16.4309 115.665 16.5406 115.651 16.6619C115.641 16.7833 115.627 16.9046 115.609 17.0259C115.702 16.8113 115.798 16.6339 115.896 16.4939L118.997 12.2379C119.053 12.1446 119.127 12.0583 119.221 11.9789C119.314 11.8996 119.419 11.8599 119.536 11.8599H120.446ZM117.394 10.0819C117.576 10.0819 117.727 10.0633 117.849 10.0259C117.975 9.98392 118.075 9.91859 118.15 9.82992C118.224 9.73659 118.278 9.61759 118.311 9.47292C118.343 9.32359 118.36 9.13926 118.36 8.91992H119.242C119.349 8.91992 119.428 8.96659 119.48 9.05992C119.531 9.14859 119.557 9.24659 119.557 9.35392C119.557 9.59192 119.505 9.80659 119.403 9.99792C119.305 10.1846 119.162 10.3456 118.976 10.4809C118.789 10.6116 118.56 10.7143 118.29 10.7889C118.024 10.8589 117.725 10.8939 117.394 10.8939C117.062 10.8939 116.761 10.8589 116.491 10.7889C116.225 10.7143 115.998 10.6116 115.812 10.4809C115.625 10.3456 115.48 10.1846 115.378 9.99792C115.28 9.80659 115.231 9.59192 115.231 9.35392C115.231 9.24659 115.256 9.14859 115.308 9.05992C115.359 8.96659 115.438 8.91992 115.546 8.91992H116.428C116.428 9.13926 116.444 9.32359 116.477 9.47292C116.509 9.61759 116.563 9.73659 116.638 9.82992C116.712 9.91859 116.81 9.98392 116.932 10.0259C117.058 10.0633 117.212 10.0819 117.394 10.0819Z" fill="#272727"/>
<path d="M74.2072 30.9919C74.8559 30.9919 75.3412 30.7889 75.6632 30.3829C75.9852 29.9723 76.1462 29.3819 76.1462 28.6119C76.1462 27.8513 75.9899 27.2656 75.6772 26.8549C75.3645 26.4396 74.8909 26.2319 74.2562 26.2319C73.6309 26.2319 73.1455 26.4233 72.8002 26.8059C72.4595 27.1886 72.2892 27.7486 72.2892 28.4859C72.2892 29.2886 72.4479 29.9069 72.7652 30.3409C73.0872 30.7749 73.5679 30.9919 74.2072 30.9919ZM74.7042 23.3969C74.2515 23.4296 73.8619 23.5229 73.5352 23.6769C73.2132 23.8309 72.9449 24.0386 72.7302 24.2999C72.5202 24.5613 72.3592 24.8739 72.2472 25.2379C72.1399 25.6019 72.0769 26.0079 72.0582 26.4559C72.2915 26.0499 72.6299 25.7256 73.0732 25.4829C73.5165 25.2403 74.0345 25.1189 74.6272 25.1189C75.1032 25.1189 75.5302 25.2029 75.9082 25.3709C76.2862 25.5389 76.6059 25.7746 76.8672 26.0779C77.1332 26.3813 77.3362 26.7476 77.4762 27.1769C77.6209 27.6063 77.6932 28.0823 77.6932 28.6049C77.6932 29.1369 77.6092 29.6199 77.4412 30.0539C77.2779 30.4833 77.0445 30.8519 76.7412 31.1599C76.4379 31.4633 76.0715 31.6966 75.6422 31.8599C75.2129 32.0233 74.7345 32.1049 74.2072 32.1049C73.7079 32.1049 73.2459 32.0233 72.8212 31.8599C72.3965 31.6919 72.0279 31.4236 71.7152 31.0549C71.4025 30.6816 71.1575 30.1939 70.9802 29.5919C70.8075 28.9899 70.7212 28.2526 70.7212 27.3799C70.7212 26.6426 70.7889 25.9613 70.9242 25.3359C71.0595 24.7106 71.2789 24.1646 71.5822 23.6979C71.8855 23.2266 72.2822 22.8486 72.7722 22.5639C73.2669 22.2746 73.8689 22.1019 74.5782 22.0459L77.1192 21.8359L77.2032 22.6199C77.2219 22.7926 77.1962 22.9373 77.1262 23.0539C77.0609 23.1706 76.9442 23.2336 76.7762 23.2429L74.7042 23.3969Z" fill="#272727"/>
<path d="M84.8456 24.8599L80.9116 34.0299C80.8602 34.1373 80.7972 34.2213 80.7226 34.2819C80.6526 34.3426 80.5429 34.3729 80.3936 34.3729H79.2806L80.5966 31.5169L77.6846 24.8599H78.9936C79.1196 24.8599 79.2152 24.8903 79.2806 24.9509C79.3506 25.0069 79.4019 25.0746 79.4346 25.1539L81.1356 29.2069C81.1776 29.3236 81.2149 29.4403 81.2476 29.5569C81.2849 29.6689 81.3199 29.7856 81.3526 29.9069C81.3899 29.7856 81.4272 29.6666 81.4646 29.5499C81.5019 29.4333 81.5439 29.3166 81.5906 29.1999L83.2216 25.1539C83.2542 25.0699 83.3079 24.9999 83.3826 24.9439C83.4619 24.8879 83.5482 24.8599 83.6416 24.8599H84.8456Z" fill="#272727"/>
<path d="M91.607 31.9999H90.165C90.0483 31.9999 89.955 31.9696 89.885 31.9089C89.8197 31.8483 89.766 31.7806 89.724 31.7059L88.079 29.0669C88.037 29.2256 87.981 29.3633 87.911 29.4799L86.42 31.7059C86.3687 31.7806 86.3103 31.8483 86.245 31.9089C86.1843 31.9696 86.1027 31.9999 86 31.9999H84.656L87.127 28.3179L84.754 24.8599H86.196C86.3127 24.8599 86.3967 24.8786 86.448 24.9159C86.504 24.9486 86.553 24.9999 86.595 25.0699L88.212 27.5899C88.254 27.4359 88.3193 27.2889 88.408 27.1489L89.773 25.0979C89.8663 24.9393 89.9853 24.8599 90.13 24.8599H91.509L89.136 28.2549L91.607 31.9999Z" fill="#272727"/>
<path d="M97.0144 25.9939H93.7804V31.9999H92.2754V24.8599H97.0144V25.9939Z" fill="#272727"/>
<path d="M101.51 28.8779C100.973 28.8966 100.521 28.9409 100.152 29.0109C99.7833 29.0763 99.4846 29.1626 99.2559 29.2699C99.0273 29.3726 98.8616 29.4963 98.7589 29.6409C98.6609 29.7856 98.6119 29.9443 98.6119 30.1169C98.6119 30.2849 98.6376 30.4296 98.6889 30.5509C98.7449 30.6676 98.8196 30.7656 98.9129 30.8449C99.0109 30.9196 99.1229 30.9756 99.2489 31.0129C99.3796 31.0456 99.5219 31.0619 99.6759 31.0619C100.068 31.0619 100.404 30.9896 100.684 30.8449C100.969 30.6956 101.244 30.4809 101.51 30.2009V28.8779ZM97.5199 25.8539C98.3273 25.1026 99.2886 24.7269 100.404 24.7269C100.815 24.7269 101.179 24.7946 101.496 24.9299C101.818 25.0606 102.086 25.2473 102.301 25.4899C102.52 25.7326 102.686 26.0219 102.798 26.3579C102.915 26.6893 102.973 27.0579 102.973 27.4639V31.9999H102.301C102.156 31.9999 102.047 31.9789 101.972 31.9369C101.897 31.8903 101.834 31.7993 101.783 31.6639L101.636 31.0829C101.454 31.2463 101.274 31.3933 101.097 31.5239C100.92 31.6499 100.735 31.7573 100.544 31.8459C100.357 31.9346 100.154 31.9999 99.9349 32.0419C99.7203 32.0886 99.4823 32.1119 99.2209 32.1119C98.9316 32.1119 98.6609 32.0723 98.4089 31.9929C98.1616 31.9136 97.9469 31.7946 97.7649 31.6359C97.5829 31.4726 97.4383 31.2719 97.3309 31.0339C97.2283 30.7959 97.1769 30.5159 97.1769 30.1939C97.1769 29.9186 97.2493 29.6503 97.3939 29.3889C97.5433 29.1276 97.7859 28.8943 98.1219 28.6889C98.4626 28.4789 98.9083 28.3063 99.4589 28.1709C100.014 28.0356 100.698 27.9586 101.51 27.9399V27.4639C101.51 26.9506 101.4 26.5679 101.181 26.3159C100.962 26.0639 100.64 25.9379 100.215 25.9379C99.9256 25.9379 99.6829 25.9753 99.4869 26.0499C99.2909 26.1199 99.1206 26.1969 98.9759 26.2809C98.8313 26.3649 98.7029 26.4443 98.5909 26.5189C98.4789 26.5889 98.3599 26.6239 98.2339 26.6239C98.1313 26.6239 98.0426 26.5983 97.9679 26.5469C97.8979 26.4909 97.8396 26.4233 97.7929 26.3439L97.5199 25.8539Z" fill="#272727"/>
<path d="M110.84 31.9999H109.335V26.0289H107.347C107.291 26.9203 107.205 27.6903 107.088 28.3389C106.976 28.9829 106.841 29.5289 106.682 29.9769C106.523 30.4249 106.346 30.7889 106.15 31.0689C105.954 31.3443 105.746 31.5589 105.527 31.7129C105.308 31.8669 105.081 31.9696 104.848 32.0209C104.619 32.0723 104.388 32.0979 104.155 32.0979C103.702 32.0979 103.476 32.0233 103.476 31.8739V30.9289H103.868C104.022 30.9289 104.178 30.9033 104.337 30.8519C104.5 30.8006 104.657 30.7003 104.806 30.5509C104.955 30.3969 105.098 30.1823 105.233 29.9069C105.373 29.6316 105.499 29.2699 105.611 28.8219C105.728 28.3693 105.828 27.8209 105.912 27.1769C105.996 26.5283 106.061 25.7559 106.108 24.8599H110.84V31.9999Z" fill="#272727"/>
<path d="M118.355 25.9939H115.723V31.9999H114.218V25.9939H111.579V24.8599H118.355V25.9939Z" fill="#272727"/>
<path d="M123.545 27.6249C123.545 27.3729 123.507 27.1396 123.433 26.9249C123.363 26.7056 123.258 26.5166 123.118 26.3579C122.978 26.1946 122.803 26.0686 122.593 25.9799C122.387 25.8866 122.149 25.8399 121.879 25.8399C121.333 25.8399 120.903 25.9963 120.591 26.3089C120.278 26.6216 120.08 27.0603 119.996 27.6249H123.545ZM119.954 28.5489C119.972 28.9549 120.035 29.3073 120.143 29.6059C120.25 29.8999 120.392 30.1449 120.57 30.3409C120.752 30.5369 120.966 30.6839 121.214 30.7819C121.466 30.8753 121.746 30.9219 122.054 30.9219C122.348 30.9219 122.602 30.8893 122.817 30.8239C123.031 30.7539 123.218 30.6793 123.377 30.5999C123.535 30.5159 123.671 30.4413 123.783 30.3759C123.895 30.3059 123.997 30.2709 124.091 30.2709C124.212 30.2709 124.305 30.3176 124.371 30.4109L124.798 30.9639C124.62 31.1739 124.42 31.3513 124.196 31.4959C123.972 31.6406 123.734 31.7596 123.482 31.8529C123.23 31.9416 122.971 32.0046 122.705 32.0419C122.439 32.0839 122.18 32.1049 121.928 32.1049C121.433 32.1049 120.973 32.0233 120.549 31.8599C120.129 31.6919 119.762 31.4469 119.45 31.1249C119.142 30.8029 118.899 30.4039 118.722 29.9279C118.549 29.4519 118.463 28.9036 118.463 28.2829C118.463 27.7883 118.54 27.3263 118.694 26.8969C118.852 26.4676 119.076 26.0943 119.366 25.7769C119.66 25.4596 120.014 25.2099 120.43 25.0279C120.85 24.8413 121.323 24.7479 121.851 24.7479C122.289 24.7479 122.695 24.8203 123.069 24.9649C123.442 25.1049 123.764 25.3126 124.035 25.5879C124.305 25.8633 124.515 26.2016 124.665 26.6029C124.819 26.9996 124.896 27.4523 124.896 27.9609C124.896 28.1943 124.87 28.3506 124.819 28.4299C124.767 28.5093 124.674 28.5489 124.539 28.5489H119.954Z" fill="#272727"/>
<path d="M127.454 30.2079C127.664 30.4786 127.893 30.6699 128.14 30.7819C128.392 30.8893 128.67 30.9429 128.973 30.9429C129.561 30.9429 130.019 30.7283 130.345 30.2989C130.677 29.8696 130.842 29.2303 130.842 28.3809C130.842 27.9423 130.805 27.5689 130.73 27.2609C130.656 26.9483 130.548 26.6939 130.408 26.4979C130.268 26.3019 130.098 26.1596 129.897 26.0709C129.697 25.9823 129.47 25.9379 129.218 25.9379C128.836 25.9379 128.504 26.0219 128.224 26.1899C127.949 26.3533 127.692 26.5889 127.454 26.8969V30.2079ZM127.377 25.8959C127.676 25.5459 128.014 25.2636 128.392 25.0489C128.775 24.8343 129.218 24.7269 129.722 24.7269C130.124 24.7269 130.488 24.8086 130.814 24.9719C131.141 25.1306 131.421 25.3639 131.654 25.6719C131.888 25.9799 132.067 26.3626 132.193 26.8199C132.324 27.2726 132.389 27.7929 132.389 28.3809C132.389 28.9083 132.317 29.4006 132.172 29.8579C132.032 30.3106 131.829 30.7049 131.563 31.0409C131.297 31.3723 130.975 31.6336 130.597 31.8249C130.219 32.0116 129.792 32.1049 129.316 32.1049C128.896 32.1049 128.539 32.0373 128.245 31.9019C127.956 31.7666 127.692 31.5799 127.454 31.3419V34.3729H125.949V24.8599H126.859C127.065 24.8599 127.195 24.9556 127.251 25.1469L127.377 25.8959Z" fill="#272727"/>
</svg>
