<svg width="769" height="451" viewBox="0 0 769 451" fill="none" xmlns="http://www.w3.org/2000/svg">
<path d="M280.128 58.1966H107.55C106.251 58.1966 105.277 57.219 105.277 55.9157V53.4176C105.277 52.1142 106.251 51.1367 107.55 51.1367H280.019C281.318 51.1367 282.293 52.1142 282.293 53.4176V55.9157C282.401 57.219 281.318 58.1966 280.128 58.1966Z" fill="#E0E0E0"/>
<path d="M271.791 56.7847H115.779V195.701H271.791V56.7847Z" fill="#E6E6E6"/>
<path d="M267.894 60.5859H119.893V191.899H267.894V60.5859Z" fill="#F5F5F5"/>
<path d="M233.248 60.5859L268.002 191.682V130.098L249.596 60.5859H233.248Z" fill="white"/>
<path d="M220.906 60.5859L255.984 192.008H261.506L226.536 60.5859H220.906Z" fill="white"/>
<path d="M119.893 143.458V164.528L127.039 192.007H132.56L119.893 143.458Z" fill="white"/>
<path d="M218.849 58.1968H216.358V194.832H218.849V58.1968Z" fill="#E6E6E6"/>
<path d="M170.454 58.1968H167.963V194.832H170.454V58.1968Z" fill="#E6E6E6"/>
<path d="M141.221 53.4177C141.221 53.4177 137.649 100.447 116.97 124.342C116.97 124.342 132.019 184.839 132.019 205.91L104.086 200.697L114.155 124.668L109.391 53.3091H141.221V53.4177Z" fill="#E0E0E0"/>
<path d="M246.457 53.4177C246.457 53.4177 250.029 100.447 270.708 124.342C270.708 124.342 255.659 184.839 255.659 205.91L283.592 200.697L273.523 124.668L278.395 53.3091H246.457V53.4177Z" fill="#E0E0E0"/>
<path d="M665.269 322H489.731C486.623 322 484 319.184 484 315.609V30.3911C484 26.9248 486.526 24 489.731 24H665.269C668.377 24 671 26.8164 671 30.3911V315.609C671 319.184 668.474 322 665.269 322ZM489.731 24.325C486.72 24.325 484.291 27.0331 484.291 30.3911V315.609C484.291 318.967 486.72 321.675 489.731 321.675H665.269C668.28 321.675 670.709 318.967 670.709 315.609V30.3911C670.709 27.0331 668.28 24.325 665.269 24.325H489.731Z" fill="#E0E0E0"/>
<path d="M460.765 322.452H265.127C261.662 322.452 258.739 319.628 258.739 316.044V30.0659C258.739 26.5903 261.554 23.6577 265.127 23.6577H460.765C464.229 23.6577 467.153 26.4817 467.153 30.0659V316.044C467.153 319.628 464.229 322.452 460.765 322.452ZM265.127 23.9836C261.771 23.9836 259.064 26.6989 259.064 30.0659V316.044C259.064 319.411 261.771 322.126 265.127 322.126H460.765C464.121 322.126 466.828 319.411 466.828 316.044V30.0659C466.828 26.6989 464.121 23.9836 460.765 23.9836H265.127Z" fill="#E0E0E0"/>
<path d="M237.035 322H84.9652C82.2722 322 80 319.184 80 315.609V30.3911C80 26.9248 82.1881 24 84.9652 24H237.035C239.728 24 242 26.8164 242 30.3911V315.609C242 319.184 239.728 322 237.035 322ZM84.9652 24.325C82.3564 24.325 80.2525 27.0331 80.2525 30.3911V315.609C80.2525 318.967 82.3564 321.675 84.9652 321.675H237.035C239.644 321.675 241.748 318.967 241.748 315.609V30.3911C241.748 27.0331 239.644 24.325 237.035 24.325H84.9652Z" fill="#E0E0E0"/>
<path d="M717 388.814H17V388.923H717V388.814Z" fill="#E0E0E0"/>
<path d="M724.935 420.638H664.631V421.072H724.935V420.638Z" fill="#EBEBEB"/>
<path d="M508.727 425.634H492.92V426.068H508.727V425.634Z" fill="#EBEBEB"/>
<path d="M79.6659 406.735H0.956055V407.17H79.6659V406.735Z" fill="#EBEBEB"/>
<path d="M107.49 406.735H95.9058V407.17H107.49V406.735Z" fill="#EBEBEB"/>
<path d="M315.579 414.447H144.951V414.881H315.579V414.447Z" fill="#EBEBEB"/>
<path d="M654.119 144.87L532.86 103.597C529.071 102.293 527.014 98.166 528.313 94.3646L552.998 21.3767C554.297 17.5752 558.411 15.5116 562.2 16.815L683.459 58.0879C687.248 59.3912 689.305 63.5185 688.006 67.32L663.321 140.308C662.022 144.109 657.908 146.173 654.119 144.87Z" fill="#EBEBEB"/>
<path d="M583.962 69.2749L562.958 62.1065C561.334 61.5634 560.468 59.8256 561.009 58.1964L566.856 40.8183C567.397 39.1891 569.129 38.3202 570.753 38.8633L591.757 46.0317C593.381 46.5748 594.247 48.3126 593.706 49.9418L587.859 67.3199C587.318 68.9491 585.586 69.818 583.962 69.2749Z" fill="#FAFAFA"/>
<path d="M554.08 78.9413C559.926 80.8964 565.664 82.8514 571.511 84.915C573.46 85.5667 574.326 82.4169 572.377 81.7653C566.531 79.8102 560.792 77.8552 554.946 75.7916C552.997 75.1399 552.131 78.181 554.08 78.9413Z" fill="#E0E0E0"/>
<path d="M580.93 88.0652C586.776 90.0202 592.515 91.9752 598.361 94.0389C600.31 94.6906 601.176 91.5408 599.227 90.8891C593.381 88.9341 587.643 86.979 581.796 84.9154C579.847 84.2637 578.981 87.4135 580.93 88.0652Z" fill="#E0E0E0"/>
<path d="M607.889 97.1887C613.735 99.1437 619.473 101.099 625.32 103.162C627.268 103.814 628.134 100.664 626.186 100.013C620.339 98.0576 614.601 96.1026 608.755 94.0389C606.698 93.3873 605.832 96.537 607.889 97.1887Z" fill="#E0E0E0"/>
<path d="M634.739 106.312C640.585 108.267 646.323 110.222 652.17 112.285C654.119 112.937 654.985 109.787 653.036 109.136C647.189 107.181 641.451 105.226 635.605 103.162C633.548 102.51 632.79 105.66 634.739 106.312Z" fill="#E0E0E0"/>
<path d="M203.09 252.722C212.726 259.999 226.151 258.479 232.864 249.355L235.245 246.097L200.167 219.812L197.785 223.071C191.073 232.194 193.455 245.554 203.09 252.722Z" fill="#E0E0E0"/>
<path d="M224.597 253.806C236.079 250.047 242.351 237.661 238.604 226.142C234.857 214.622 222.511 208.331 211.028 212.089C199.546 215.848 193.274 228.234 197.021 239.753C200.768 251.273 213.114 257.564 224.597 253.806Z" fill="#EBEBEB"/>
<path d="M207.312 247.074C215.108 252.831 226.043 251.31 231.781 243.49C237.519 235.67 236.003 224.7 228.208 218.944C220.413 213.187 209.478 214.708 203.74 222.528C198.001 230.239 199.626 241.318 207.312 247.074Z" fill="#F5F5F5"/>
<path d="M224.96 235.018C224.96 236.213 224.635 237.299 223.877 238.277L224.311 238.711C224.527 238.928 224.635 239.146 224.635 239.471C224.635 239.797 224.527 240.015 224.311 240.232C224.094 240.449 223.877 240.558 223.553 240.558C223.228 240.558 223.011 240.449 222.795 240.232L222.47 239.906C221.604 240.558 220.629 240.992 219.763 241.101C218.789 241.318 217.923 241.209 217.165 240.883C216.84 240.775 216.515 240.558 216.407 240.449C216.191 240.232 216.082 239.906 216.082 239.689C216.082 239.363 216.191 239.146 216.407 238.82C216.624 238.603 216.84 238.494 217.057 238.494C217.273 238.494 217.598 238.494 217.815 238.603C218.248 238.82 218.789 238.928 219.33 238.82C219.872 238.711 220.413 238.494 220.954 238.168L217.598 234.584C216.407 235.127 215.324 235.453 214.35 235.561C213.376 235.561 212.509 235.236 211.752 234.475C210.994 233.715 210.669 232.737 210.669 231.76C210.669 230.674 211.102 229.696 211.86 228.61L211.535 228.284C211.319 228.067 211.21 227.85 211.21 227.524C211.21 227.198 211.319 226.981 211.535 226.764C211.752 226.546 211.968 226.438 212.293 226.438C212.618 226.438 212.834 226.546 213.051 226.764L213.376 227.09C214.35 226.329 215.324 225.895 216.191 225.786C217.057 225.678 217.923 226.003 218.464 226.655C218.681 226.872 218.789 227.198 218.789 227.524C218.789 227.85 218.681 228.067 218.464 228.284C218.248 228.502 218.031 228.61 217.815 228.61C217.598 228.61 217.273 228.502 217.057 228.393C216.84 228.176 216.515 228.067 216.082 228.176C215.649 228.176 215.216 228.393 214.783 228.719L217.815 231.977C220.413 230.674 222.47 230.782 223.877 232.194C224.635 232.846 224.96 233.824 224.96 235.018ZM214.242 233.172C214.675 233.172 215.216 233.063 215.866 232.737L213.267 230.022C212.834 230.565 212.726 231 212.618 231.543C212.618 231.977 212.726 232.412 213.051 232.737C213.484 233.063 213.809 233.172 214.242 233.172ZM222.903 235.018C222.903 234.475 222.687 234.041 222.362 233.606C222.037 233.28 221.712 233.172 221.279 233.172C220.846 233.172 220.196 233.28 219.439 233.606L222.362 236.647C222.687 236.104 222.903 235.561 222.903 235.018Z" fill="#E0E0E0"/>
<path d="M200.383 234.149C199.517 224.483 206.771 215.902 216.407 215.142C226.042 214.273 234.595 221.55 235.353 231.217C233.513 222.528 225.501 216.446 216.623 217.206C206.987 218.075 199.734 226.547 200.6 236.213C200.6 235.561 200.491 234.91 200.383 234.149Z" fill="#E0E0E0"/>
<path d="M423.521 58.3048C416.808 75.4656 424.495 94.4729 440.519 100.664L446.257 102.945L470.4 40.8181L464.662 38.5372C448.53 32.3463 430.125 41.144 423.521 58.3048Z" fill="#E0E0E0"/>
<path d="M490.376 80.3862C495.076 62.584 484.5 44.3307 466.754 39.6163C449.009 34.902 430.814 45.5118 426.114 63.314C421.415 81.1163 431.991 99.3696 449.737 104.084C467.482 108.798 485.677 98.1885 490.376 80.3862Z" fill="#EBEBEB"/>
<path d="M433.481 62.2149C428.176 75.9001 434.888 91.4318 448.638 96.7538C462.28 102.076 477.762 95.3418 483.067 81.548C488.372 67.8627 481.66 52.3311 467.91 47.0091C454.16 41.687 438.786 48.5296 433.481 62.2149Z" fill="#F5F5F5"/>
<path d="M458.274 83.1776C456.542 83.612 454.918 83.5034 453.077 82.9604L452.644 83.7206C452.428 84.1551 452.103 84.3723 451.67 84.4809C451.237 84.5895 450.804 84.5895 450.371 84.3723C449.938 84.1551 449.721 83.8293 449.613 83.3948C449.504 82.9603 449.613 82.5259 449.829 82.0914L450.262 81.4398C448.963 80.4623 447.989 79.2675 447.339 77.9642C446.69 76.6608 446.473 75.3574 446.581 74.1627C446.69 73.6196 446.798 73.1852 446.906 72.8593C447.123 72.4249 447.447 72.2077 447.989 72.0991C448.422 71.9904 448.855 71.9904 449.288 72.3163C449.613 72.5335 449.829 72.7507 450.046 73.1852C450.154 73.511 450.262 73.9455 450.154 74.2713C449.938 75.0316 450.046 75.9005 450.479 76.6608C450.804 77.4211 451.345 78.1814 451.995 78.7244L455.892 72.3163C454.485 70.7957 453.619 69.2751 453.186 67.8632C452.752 66.4512 452.861 65.0392 453.727 63.6272C454.593 62.2153 455.784 61.3464 457.3 60.9119C458.815 60.4775 460.548 60.6947 462.388 61.455L462.713 60.8033C462.93 60.3689 463.254 60.1516 463.687 60.043C464.12 59.9344 464.554 59.9344 464.878 60.1516C465.311 60.3689 465.528 60.6947 465.636 61.1291C465.744 61.5636 465.744 61.9981 465.42 62.4325L465.095 63.0842C466.611 64.1703 467.693 65.4737 468.126 66.777C468.559 68.0804 468.451 69.3837 467.802 70.4699C467.585 70.9043 467.152 71.2302 466.719 71.3388C466.286 71.4474 465.853 71.4474 465.42 71.1215C465.095 70.9043 464.77 70.5785 464.662 70.2526C464.554 69.8182 464.554 69.4923 464.77 69.0579C464.987 68.6234 464.878 68.0804 464.662 67.4287C464.445 66.8856 464.012 66.234 463.363 65.6909L459.898 71.4474C462.821 74.8144 463.579 77.7469 462.063 80.4623C461.197 81.8742 459.898 82.7431 458.274 83.1776ZM456.434 66.777C456.65 67.4287 457.083 68.189 457.733 69.0579L460.656 64.1703C459.682 63.8445 458.924 63.7359 458.274 63.8445C457.624 63.9531 457.083 64.3875 456.758 65.0392C456.434 65.4737 456.325 66.1253 456.434 66.777ZM457.3 80.1364C458.058 79.9192 458.707 79.4847 459.032 78.8331C459.357 78.29 459.465 77.7469 459.248 76.9866C459.14 76.335 458.707 75.4661 457.949 74.4885L454.701 80.0278C455.676 80.4623 456.542 80.4622 457.3 80.1364Z" fill="#E0E0E0"/>
<path d="M449.505 46.7919C463.363 41.6871 478.737 48.7469 483.825 62.6493C488.914 76.5518 481.876 91.9748 468.018 97.0797C480.036 90.8887 485.558 76.6604 480.902 63.9527C475.705 50.0503 460.44 42.9904 446.582 48.0952C447.556 47.5522 448.53 47.1177 449.505 46.7919Z" fill="#E0E0E0"/>
<path d="M542.939 356.99C543.047 369.155 552.25 378.822 563.618 378.822H567.624L567.299 334.942H563.293C551.925 335.051 542.831 344.934 542.939 356.99Z" fill="#E0E0E0"/>
<path d="M588.812 361.822C591.564 350.024 584.262 338.221 572.501 335.459C560.741 332.698 548.975 340.023 546.222 351.822C543.47 363.62 550.772 375.423 562.533 378.185C574.294 380.946 586.059 373.62 588.812 361.822Z" fill="#EBEBEB"/>
<path d="M549.976 356.991C550.084 366.657 557.88 374.477 567.624 374.477C577.259 374.369 585.055 366.548 585.055 356.773C584.946 347.107 577.151 339.287 567.407 339.287C557.663 339.395 549.868 347.324 549.976 356.991Z" fill="#F5F5F5"/>
<path d="M570.222 363.833C569.356 364.485 568.273 364.919 566.974 364.919L566.866 365.462C566.866 365.788 566.649 366.005 566.433 366.223C566.216 366.44 565.891 366.44 565.675 366.44C565.35 366.44 565.133 366.223 565.025 366.005C564.809 365.788 564.809 365.462 564.809 365.136L564.917 364.593C563.834 364.268 562.968 363.833 562.318 363.181C561.669 362.53 561.128 361.769 560.911 361.009C560.803 360.683 560.803 360.357 560.803 360.14C560.803 359.814 561.019 359.597 561.236 359.38C561.452 359.163 561.777 359.163 562.102 359.163C562.318 359.163 562.535 359.271 562.752 359.489C562.968 359.706 563.076 359.923 563.076 360.14C563.185 360.683 563.401 361.118 563.834 361.552C564.267 361.987 564.7 362.204 565.242 362.421L566.108 357.534C564.917 356.882 563.942 356.23 563.401 355.47C562.751 354.71 562.535 353.841 562.752 352.755C562.968 351.668 563.401 350.8 564.267 350.256C565.133 349.605 566.216 349.388 567.515 349.388L567.624 348.953C567.624 348.627 567.84 348.41 568.057 348.193C568.273 347.976 568.598 347.976 568.814 347.976C569.139 347.976 569.356 348.193 569.464 348.41C569.681 348.627 569.681 348.953 569.681 349.279L569.572 349.713C570.763 350.039 571.738 350.474 572.279 351.234C572.929 351.886 573.145 352.755 573.037 353.623C573.037 353.949 572.82 354.275 572.604 354.384C572.387 354.601 572.062 354.601 571.738 354.601C571.413 354.601 571.196 354.384 571.088 354.275C570.872 354.058 570.872 353.841 570.872 353.515C570.872 353.189 570.763 352.863 570.438 352.537C570.114 352.212 569.789 351.994 569.248 351.777L568.49 356.122C571.088 357.425 572.279 359.054 571.954 361.118C571.738 362.204 571.196 363.073 570.222 363.833ZM565.133 354.167C565.35 354.492 565.783 354.927 566.433 355.253L566.974 351.56C566.324 351.56 565.783 351.668 565.458 351.994C565.133 352.212 564.809 352.646 564.809 353.08C564.809 353.406 564.917 353.841 565.133 354.167ZM568.923 362.204C569.356 361.878 569.572 361.444 569.681 361.009C569.789 360.575 569.681 360.249 569.356 359.814C569.139 359.38 568.598 359.054 567.948 358.62L567.299 362.856C567.948 362.747 568.49 362.53 568.923 362.204Z" fill="#E0E0E0"/>
<path d="M556.039 343.631C563.293 337.114 574.336 337.766 580.832 344.934C587.328 352.211 586.679 363.29 579.533 369.807C585.38 363.073 585.271 353.08 579.425 346.455C572.929 339.178 561.777 338.635 554.632 345.152C555.065 344.608 555.498 344.065 556.039 343.631Z" fill="#E0E0E0"/>
<path d="M718 443.5C718 447.123 566.407 450 379.5 450C192.593 450 41 447.123 41 443.5C41 439.877 192.593 437 379.5 437C566.407 437 718 439.877 718 443.5Z" fill="#F5F5F5"/>
<path d="M478.846 330.924L461.306 424.44H376.425L391.258 330.924H478.846Z" fill="#263238"/>
<path opacity="0.8" d="M478.846 330.924L461.306 424.44H376.425L391.258 330.924H478.846Z" fill="white"/>
<path d="M323.483 438.777H529.731V429.762C529.731 424.765 525.725 420.638 520.636 420.638H332.469C327.489 420.638 323.375 424.657 323.375 429.762V438.777H323.483Z" fill="#263238"/>
<path opacity="0.8" d="M323.483 438.777H529.731V429.762C529.731 424.765 525.725 420.638 520.636 420.638H332.469C327.489 420.638 323.375 424.657 323.375 429.762V438.777H323.483Z" fill="white"/>
<path d="M604.868 85.7842H597.181H250.511H242.824C237.736 85.7842 233.513 89.9115 233.513 95.1249V341.025C233.513 346.129 237.627 350.365 242.824 350.365H250.511H597.181H604.868C609.956 350.365 614.179 346.238 614.179 341.025V95.0163C614.179 89.9115 610.065 85.7842 604.868 85.7842Z" fill="#263238"/>
<g opacity="0.8">
<path d="M604.868 85.7842H597.181H250.511H242.824C237.736 85.7842 233.513 89.9115 233.513 95.1249V341.025C233.513 346.129 237.627 350.365 242.824 350.365H250.511H597.181H604.868C609.956 350.365 614.179 346.238 614.179 341.025V95.0163C614.179 89.9115 610.065 85.7842 604.868 85.7842Z" fill="white"/>
</g>
<g opacity="0.2">
<path d="M250.511 350.257H242.824C237.736 350.257 233.622 346.13 233.622 341.025V95.0165C233.622 89.9117 237.736 85.6758 242.824 85.6758H250.511C245.423 85.6758 241.309 89.8031 241.309 95.0165V340.916C241.309 346.021 245.423 350.257 250.511 350.257Z" fill="black"/>
</g>
<path d="M605.842 93.7129H249.645V330.815H605.842V93.7129Z" fill="#3F4F8B"/>
<path d="M605.842 93.7129H249.645V330.815H605.842V93.7129Z" fill="white"/>
<path d="M605.951 93.7129H249.32V331.141H605.951V93.7129Z" fill="#CED8FF"/>
<g opacity="0.5">
<path d="M605.951 93.7129H249.32V331.141H605.951V93.7129Z" fill="white"/>
</g>
<path d="M365.382 93.7129H249.32V331.467H365.382V93.7129Z" fill="#3F4F8B"/>
<g opacity="0.3">
<path d="M599.238 105.226C599.238 107.507 597.398 109.244 595.232 109.244C592.959 109.244 591.227 107.398 591.227 105.226C591.227 102.945 593.067 101.207 595.232 101.207C597.398 101.207 599.238 103.053 599.238 105.226Z" fill="white"/>
</g>
<g opacity="0.3">
<path d="M587.762 105.226C587.762 107.507 585.921 109.244 583.756 109.244C581.482 109.244 579.75 107.398 579.75 105.226C579.75 102.945 581.591 101.207 583.756 101.207C585.921 101.207 587.762 103.053 587.762 105.226Z" fill="white"/>
</g>
<g opacity="0.3">
<path d="M576.286 105.226C576.286 107.507 574.445 109.244 572.28 109.244C570.114 109.244 568.274 107.398 568.274 105.226C568.274 102.945 570.114 101.207 572.28 101.207C574.445 101.207 576.286 103.053 576.286 105.226Z" fill="white"/>
</g>
<path opacity="0.2" d="M249.32 274.879C249.32 272.816 265.669 245.988 301.721 217.858C337.774 189.727 382.272 208.951 425.47 177.997C468.669 147.042 500.607 93.713 500.607 93.713L423.63 93.3872C423.63 93.3872 413.669 153.233 367.872 160.727C322.076 168.33 249.32 214.273 249.32 214.273V274.879Z" fill="white"/>
<path opacity="0.2" d="M290.461 331.467C290.461 331.467 462.714 185.057 485.017 157.577C507.32 130.098 561.453 93.3872 561.453 93.3872H579.642C579.642 93.3872 525.508 135.529 501.365 157.577C477.113 179.517 319.91 331.467 319.91 331.467H290.461Z" fill="white"/>
<path d="M303.562 131.945H287.755C287.214 131.945 286.997 131.293 287.43 130.967L294.9 125.102L303.237 118.585C303.454 118.477 303.67 118.477 303.887 118.585L312.223 125.102L319.694 130.967C320.127 131.293 319.91 131.945 319.369 131.945H303.562Z" fill="#3F4F8B"/>
<g opacity="0.7">
<path d="M303.562 131.945H287.755C287.214 131.945 286.997 131.293 287.43 130.967L294.9 125.102L303.237 118.585C303.454 118.477 303.67 118.477 303.887 118.585L312.223 125.102L319.694 130.967C320.127 131.293 319.91 131.945 319.369 131.945H303.562Z" fill="white"/>
</g>
<path d="M314.713 130.315H292.41C292.193 130.315 292.085 130.207 291.977 129.99C291.869 129.772 291.977 129.664 292.085 129.555L303.237 120.866C303.345 120.758 303.562 120.758 303.778 120.866L314.93 129.555C315.038 129.664 315.146 129.881 315.038 129.99C315.038 130.098 314.93 130.315 314.713 130.315ZM292.951 129.664H314.063L303.453 121.409L292.951 129.664Z" fill="#3F4F8B"/>
<path d="M293.926 131.945H290.895V144.87H293.926V131.945Z" fill="#3F4F8B"/>
<g opacity="0.7">
<path d="M293.926 131.945H290.895V144.87H293.926V131.945Z" fill="white"/>
</g>
<path d="M300.747 131.945H297.715V144.87H300.747V131.945Z" fill="#3F4F8B"/>
<g opacity="0.7">
<path d="M300.747 131.945H297.715V144.87H300.747V131.945Z" fill="white"/>
</g>
<path d="M310.057 131.945H307.026V144.87H310.057V131.945Z" fill="#3F4F8B"/>
<g opacity="0.7">
<path d="M310.057 131.945H307.026V144.87H310.057V131.945Z" fill="white"/>
</g>
<path d="M316.77 131.945H313.739V144.87H316.77V131.945Z" fill="#3F4F8B"/>
<g opacity="0.7">
<path d="M316.77 131.945H313.739V144.87H316.77V131.945Z" fill="white"/>
</g>
<path d="M319.693 148.237H287.43C286.997 148.237 286.672 147.802 286.78 147.368L287.322 145.413C287.43 145.087 287.646 144.87 287.971 144.87H319.152C319.477 144.87 319.693 145.087 319.802 145.413L320.451 147.368C320.451 147.802 320.126 148.237 319.693 148.237Z" fill="#3F4F8B"/>
<g opacity="0.7">
<path d="M319.693 148.237H287.43C286.997 148.237 286.672 147.802 286.78 147.368L287.322 145.413C287.43 145.087 287.646 144.87 287.971 144.87H319.152C319.477 144.87 319.693 145.087 319.802 145.413L320.451 147.368C320.451 147.802 320.126 148.237 319.693 148.237Z" fill="white"/>
</g>
<path d="M303.562 128.578C302.371 128.578 301.396 127.6 301.396 126.406C301.396 125.211 302.371 124.233 303.562 124.233C304.753 124.233 305.727 125.211 305.727 126.406C305.727 127.6 304.753 128.578 303.562 128.578ZM303.562 124.885C302.696 124.885 302.046 125.537 302.046 126.406C302.046 127.275 302.696 127.926 303.562 127.926C304.428 127.926 305.078 127.275 305.078 126.406C305.078 125.537 304.428 124.885 303.562 124.885Z" fill="#3F4F8B"/>
<path d="M318.286 133.791H288.837C288.404 133.791 288.08 133.465 288.08 133.031V132.705C288.08 132.271 288.404 131.945 288.837 131.945H318.286C318.719 131.945 319.044 132.271 319.044 132.705V133.031C319.044 133.465 318.719 133.791 318.286 133.791Z" fill="#3F4F8B"/>
<g opacity="0.7">
<path d="M318.286 133.791H288.837C288.404 133.791 288.08 133.465 288.08 133.031V132.705C288.08 132.271 288.404 131.945 288.837 131.945H318.286C318.719 131.945 319.044 132.271 319.044 132.705V133.031C319.044 133.465 318.719 133.791 318.286 133.791Z" fill="white"/>
</g>
<path d="M318.394 132.379H288.729C288.513 132.379 288.404 132.271 288.404 132.053C288.404 131.836 288.513 131.728 288.729 131.728H318.394C318.611 131.728 318.719 131.836 318.719 132.053C318.719 132.271 318.502 132.379 318.394 132.379Z" fill="#3F4F8B"/>
<path d="M318.394 146.933H288.729C288.513 146.933 288.404 146.825 288.404 146.608C288.404 146.39 288.513 146.282 288.729 146.282H318.394C318.611 146.282 318.719 146.39 318.719 146.608C318.719 146.825 318.502 146.933 318.394 146.933Z" fill="#3F4F8B"/>
<path opacity="0.7" d="M333.552 155.623H275.413V160.836H333.552V155.623Z" fill="white"/>
<path opacity="0.7" d="M333.552 182.016H275.413V187.229H333.552V182.016Z" fill="white"/>
<path opacity="0.7" d="M303.562 193.854H275.413V199.067H303.562V193.854Z" fill="white"/>
<path opacity="0.7" d="M342.213 223.289H275.413V228.502H342.213V223.289Z" fill="white"/>
<path opacity="0.7" d="M299.231 235.996H275.413V241.21H299.231V235.996Z" fill="white"/>
<path opacity="0.7" d="M343.404 235.996H327.164V241.21H343.404V235.996Z" fill="white"/>
<path opacity="0.7" d="M299.231 249.79H275.413V255.003H299.231V249.79Z" fill="white"/>
<path opacity="0.7" d="M343.404 249.79H327.164V255.003H343.404V249.79Z" fill="white"/>
<path opacity="0.7" d="M299.231 263.475H275.413V268.689H299.231V263.475Z" fill="white"/>
<path opacity="0.7" d="M343.404 263.475H327.164V268.689H343.404V263.475Z" fill="white"/>
<path opacity="0.7" d="M299.231 277.269H275.413V282.482H299.231V277.269Z" fill="white"/>
<path opacity="0.7" d="M343.404 277.269H327.164V282.482H343.404V277.269Z" fill="white"/>
<path opacity="0.7" d="M299.231 291.063H275.413V296.276H299.231V291.063Z" fill="white"/>
<path opacity="0.7" d="M343.404 291.063H327.164V296.276H343.404V291.063Z" fill="white"/>
<path d="M470.184 192.551H394.289C393.315 192.551 392.449 191.79 392.449 190.704V143.24C392.449 142.263 393.207 141.394 394.289 141.394H470.184C471.159 141.394 472.025 142.154 472.025 143.24V190.704C472.025 191.682 471.159 192.551 470.184 192.551Z" fill="#3F4F8B"/>
<path opacity="0.6" d="M416.917 165.289H405.549C404.358 165.289 403.275 164.311 403.275 163.008V153.776C403.275 152.581 404.25 151.495 405.549 151.495H416.917C418.108 151.495 419.191 152.473 419.191 153.776V163.008C419.082 164.311 418.108 165.289 416.917 165.289Z" fill="white"/>
<g opacity="0.3">
<path d="M403.275 175.716C406.74 175.716 410.096 175.716 413.561 175.716C414.752 175.716 414.752 173.869 413.561 173.869C410.096 173.869 406.74 173.869 403.275 173.869C402.193 173.869 402.193 175.716 403.275 175.716Z" fill="black"/>
</g>
<g opacity="0.3">
<path d="M419.083 175.716C422.547 175.716 425.903 175.716 429.368 175.716C430.559 175.716 430.559 173.869 429.368 173.869C425.903 173.869 422.547 173.869 419.083 173.869C418 173.869 418 175.716 419.083 175.716Z" fill="black"/>
</g>
<g opacity="0.3">
<path d="M434.998 175.716C438.462 175.716 441.818 175.716 445.283 175.716C446.474 175.716 446.474 173.869 445.283 173.869C441.818 173.869 438.462 173.869 434.998 173.869C433.807 173.869 433.807 175.716 434.998 175.716Z" fill="black"/>
</g>
<g opacity="0.3">
<path d="M450.804 175.716C454.269 175.716 457.625 175.716 461.09 175.716C462.281 175.716 462.281 173.869 461.09 173.869C457.625 173.869 454.269 173.869 450.804 173.869C449.613 173.869 449.613 175.716 450.804 175.716Z" fill="black"/>
</g>
<path d="M514.682 159.967C514.682 159.967 519.445 144.11 537.418 143.458C555.39 142.806 569.573 147.585 570.114 163.443C570.655 179.409 561.453 182.559 561.453 182.559L561.128 190.922H552.034V186.034C552.034 186.034 540.124 186.577 535.577 185.165V192.225H525.833L525.725 182.667C525.725 182.667 518.471 179.083 516.197 173.001H511.217C509.485 167.896 508.943 162.9 510.459 159.858L514.682 159.967Z" fill="#FF744F"/>
<path d="M524.967 150.735C524.642 147.911 524.317 144.978 523.992 142.155C523.992 141.829 523.884 141.503 524.101 141.286C524.317 140.851 524.967 140.743 525.4 140.851C527.565 141.068 529.406 142.589 530.597 144.327C531.788 146.065 532.545 148.128 533.195 150.192" fill="#FF744F"/>
<path d="M523.885 147.694C522.694 145.956 520.853 144.436 518.688 144.218C518.146 144.11 517.605 144.218 517.389 144.653C517.28 144.87 517.28 145.196 517.28 145.522C517.605 148.346 517.93 151.278 518.255 154.102L526.483 153.559C525.833 151.604 525.075 149.54 523.885 147.694Z" fill="#FF744F"/>
<path d="M539.908 147.368C543.589 147.042 547.161 147.259 550.734 148.237C551.276 148.346 551.492 147.585 550.951 147.477C547.378 146.499 543.589 146.173 539.908 146.608C539.474 146.608 539.366 147.477 539.908 147.368Z" fill="#263238"/>
<path d="M523.018 158.338C523.126 159.207 523.126 160.076 523.018 160.944C523.018 161.162 523.126 161.379 523.343 161.488C523.559 161.488 523.776 161.379 523.884 161.162C524.101 160.184 524.101 159.315 523.992 158.338C523.992 158.121 523.776 157.903 523.559 157.903C523.235 157.903 523.018 158.121 523.018 158.338Z" fill="#263238"/>
<path d="M570.222 163.334C571.197 161.814 573.362 161.922 574.553 163.008C575.852 164.203 576.718 166.701 575.852 168.33C575.419 169.308 574.228 169.742 573.47 168.765C572.821 167.896 573.146 166.701 573.47 165.724C574.12 163.986 575.203 162.357 576.935 161.705C578.667 160.945 580.941 161.379 581.915 163.008C582.132 163.443 582.89 163.008 582.565 162.574C581.482 160.728 578.992 160.076 576.935 160.728C574.661 161.488 573.037 163.877 572.388 166.158C572.063 167.353 572.063 168.656 572.929 169.525C573.687 170.285 574.878 170.177 575.744 169.525C577.585 168.005 576.718 164.529 575.419 162.791C573.904 160.945 570.656 160.51 569.248 162.791C569.248 163.334 570.006 163.769 570.222 163.334Z" fill="#263238"/>
<path d="M510.459 160.51C512.3 164.094 512.733 168.221 511.867 172.131C511.758 172.675 512.516 172.892 512.624 172.349C513.599 168.221 513.166 163.877 511.217 160.075C510.892 159.641 510.134 160.075 510.459 160.51Z" fill="#263238"/>
<path opacity="0.3" d="M470.725 309.527H391.691C388.01 309.527 385.086 306.594 385.086 302.902V223.614C385.086 219.921 388.01 216.989 391.691 216.989H470.725C474.406 216.989 477.33 219.921 477.33 223.614V302.902C477.33 306.486 474.406 309.527 470.725 309.527Z" fill="#FF744F"/>
<path d="M405.224 267.819C407.498 281.939 419.948 291.606 433.157 289.542L437.812 288.782L429.692 237.625L425.037 238.385C411.828 240.558 402.95 253.7 405.224 267.819Z" fill="#FF744F"/>
<path opacity="0.3" d="M405.224 267.819C407.498 281.939 419.948 291.606 433.157 289.542L437.812 288.782L429.692 237.625L425.037 238.385C411.828 240.558 402.95 253.7 405.224 267.819Z" fill="black"/>
<path d="M434.948 289.098C449.166 288.478 460.191 276.412 459.573 262.149C458.955 247.885 446.928 236.825 432.71 237.445C418.491 238.065 407.466 250.131 408.085 264.394C408.703 278.658 420.73 289.718 434.948 289.098Z" fill="#FF744F"/>
<path d="M413.452 266.516C415.293 277.812 425.794 285.523 437.054 283.677C448.314 281.831 456.001 271.295 454.16 259.999C452.32 248.704 441.818 240.992 430.558 242.839C419.298 244.576 411.611 255.22 413.452 266.516Z" fill="#FF744F"/>
<path opacity="0.3" d="M413.452 266.516C415.293 277.812 425.794 285.523 437.054 283.677C448.314 281.831 456.001 271.295 454.16 259.999C452.32 248.704 441.818 240.992 430.558 242.839C419.298 244.576 411.611 255.22 413.452 266.516Z" fill="white"/>
<path d="M438.245 270.861C437.271 271.838 436.08 272.49 434.673 272.707V273.359C434.673 273.685 434.564 274.011 434.24 274.228C434.023 274.445 433.698 274.662 433.373 274.662C433.049 274.662 432.724 274.554 432.507 274.228C432.291 274.011 432.182 273.685 432.182 273.25V272.707C430.883 272.49 429.801 272.164 428.826 271.512C427.852 270.861 427.202 270.1 426.769 269.232C426.553 268.797 426.444 268.471 426.444 268.145C426.444 267.82 426.553 267.494 426.877 267.168C427.094 266.951 427.419 266.733 427.852 266.733C428.177 266.733 428.393 266.842 428.718 267.059C428.934 267.277 429.151 267.494 429.259 267.82C429.476 268.471 429.801 268.906 430.342 269.34C430.883 269.775 431.533 269.992 432.182 270.1L432.291 264.235C430.775 263.692 429.584 263.149 428.718 262.389C427.852 261.629 427.419 260.651 427.419 259.348C427.419 258.044 427.852 256.958 428.718 256.089C429.584 255.22 430.775 254.677 432.291 254.46V253.917C432.291 253.591 432.399 253.265 432.616 253.048C432.832 252.831 433.157 252.614 433.482 252.614C433.806 252.614 434.131 252.722 434.348 253.048C434.564 253.265 434.781 253.591 434.781 253.917V254.46C436.297 254.569 437.379 255.003 438.245 255.764C439.112 256.415 439.436 257.284 439.436 258.37C439.436 258.805 439.328 259.131 439.003 259.348C438.787 259.565 438.462 259.782 438.029 259.782C437.704 259.782 437.379 259.674 437.163 259.456C436.946 259.239 436.838 259.022 436.73 258.696C436.73 258.262 436.405 257.936 436.08 257.719C435.647 257.393 435.214 257.176 434.564 257.067L434.456 262.28C437.704 263.366 439.436 265.104 439.436 267.494C439.653 268.688 439.22 269.883 438.245 270.861ZM430.667 260.434C430.992 260.76 431.641 261.086 432.399 261.411V256.958C431.641 257.067 431.1 257.284 430.667 257.719C430.234 258.044 430.125 258.587 430.125 259.131C430.125 259.674 430.234 260.108 430.667 260.434ZM436.405 269.123C436.838 268.688 437.054 268.145 437.054 267.494C437.054 267.059 436.838 266.625 436.513 266.19C436.188 265.756 435.539 265.43 434.673 265.104V270.1C435.43 269.992 435.972 269.666 436.405 269.123Z" fill="#FF744F"/>
<path d="M417.567 249.898C424.929 240.884 438.137 239.58 447.123 246.966C456.109 254.352 457.409 267.602 450.047 276.617C455.785 267.602 453.836 255.764 445.608 249.03C436.621 241.644 423.413 242.947 416.051 251.962C416.484 251.202 417.025 250.55 417.567 249.898Z" fill="#FF744F"/>
<path opacity="0.3" d="M417.567 249.898C424.929 240.884 438.137 239.58 447.123 246.966C456.109 254.352 457.409 267.602 450.047 276.617C455.785 267.602 453.836 255.764 445.608 249.03C436.621 241.644 423.413 242.947 416.051 251.962C416.484 251.202 417.025 250.55 417.567 249.898Z" fill="black"/>
<path d="M530.705 267.385H519.445V280.527H530.705V267.385Z" fill="#3F4F8B"/>
<path d="M547.919 255.003H536.66V280.527H547.919V255.003Z" fill="#3F4F8B"/>
<path d="M564.917 242.947H553.658V280.527H564.917V242.947Z" fill="#3F4F8B"/>
<path d="M608.332 244.359C624.356 256.307 646.442 253.809 657.594 238.712L661.599 233.389L603.677 189.944L599.671 195.266C588.411 210.472 592.309 232.412 608.332 244.359Z" fill="#FF744F"/>
<path opacity="0.3" d="M608.332 244.359C624.356 256.307 646.442 253.809 657.594 238.712L661.599 233.389L603.677 189.944L599.671 195.266C588.411 210.472 592.309 232.412 608.332 244.359Z" fill="black"/>
<path d="M649.796 243.739C667.371 234.222 673.927 212.215 664.441 194.584C654.955 176.953 633.018 170.375 615.443 179.892C597.868 189.408 591.311 211.416 600.798 229.047C610.284 246.677 632.221 253.255 649.796 243.739Z" fill="#FF744F"/>
<path d="M658.369 224.867C665.578 210.578 659.874 193.132 645.63 185.901C631.386 178.669 613.996 184.391 606.787 198.681C599.579 212.97 605.283 230.416 619.527 237.648C633.771 244.879 651.161 239.157 658.369 224.867Z" fill="#FF744F"/>
<path opacity="0.3" d="M658.369 224.867C665.578 210.578 659.874 193.132 645.63 185.901C631.386 178.669 613.996 184.391 606.787 198.681C599.579 212.97 605.283 230.416 619.527 237.648C633.771 244.879 651.161 239.157 658.369 224.867Z" fill="white"/>
<path d="M644.493 215.034C644.493 216.88 643.844 218.727 642.761 220.356L643.411 221.008C643.735 221.333 643.952 221.768 643.952 222.311C643.952 222.854 643.735 223.288 643.411 223.614C643.086 223.94 642.653 224.157 642.111 224.049C641.678 224.049 641.245 223.831 640.812 223.506L640.271 222.854C638.863 223.94 637.348 224.592 635.724 224.918C634.208 225.243 632.801 225.135 631.501 224.592C630.96 224.375 630.527 224.049 630.202 223.832C629.877 223.506 629.661 223.071 629.661 222.528C629.661 221.985 629.877 221.551 630.202 221.225C630.527 220.899 630.852 220.79 631.285 220.682C631.718 220.682 632.151 220.682 632.476 220.899C633.234 221.333 634.1 221.442 635.074 221.333C636.049 221.225 636.915 220.899 637.673 220.356L632.043 214.382C630.094 215.36 628.253 215.903 626.629 216.011C625.005 216.12 623.598 215.468 622.407 214.274C621.216 212.97 620.566 211.45 620.566 209.712C620.566 207.974 621.324 206.236 622.623 204.607L622.082 204.064C621.757 203.738 621.541 203.304 621.541 202.761C621.541 202.218 621.649 201.892 621.974 201.566C622.299 201.24 622.732 201.023 623.273 201.131C623.814 201.131 624.247 201.349 624.572 201.674L625.114 202.218C626.738 200.914 628.253 200.262 629.769 200.154C631.285 200.045 632.584 200.48 633.558 201.566C633.991 202 634.1 202.435 634.1 202.978C634.1 203.521 633.883 203.955 633.558 204.281C633.234 204.607 632.801 204.716 632.367 204.824C631.934 204.824 631.501 204.716 631.177 204.39C630.743 204.064 630.202 203.955 629.553 204.064C628.903 204.173 628.145 204.39 627.387 204.933L632.367 210.255C636.698 208.083 640.054 208.191 642.328 210.581C643.844 211.558 644.493 213.079 644.493 215.034ZM626.629 212.101C627.387 212.101 628.253 211.884 629.336 211.45L625.114 206.996C624.464 207.865 624.139 208.734 624.139 209.495C624.139 210.255 624.356 210.907 624.897 211.45C625.438 211.884 625.98 212.101 626.629 212.101ZM641.029 215.142C641.029 214.274 640.704 213.513 640.163 212.862C639.73 212.427 639.08 212.101 638.322 212.101C637.564 211.993 636.59 212.319 635.399 212.753L640.271 217.858C640.704 216.88 641.029 216.011 641.029 215.142Z" fill="#FF744F"/>
<path d="M603.244 214.274C601.837 197.982 613.962 183.753 630.094 182.341C646.334 180.93 660.517 193.094 661.924 209.278C658.893 194.615 645.468 184.622 630.635 185.817C614.395 187.229 602.378 201.457 603.785 217.749C603.461 216.555 603.352 215.468 603.244 214.274Z" fill="#FF744F"/>
<path opacity="0.3" d="M603.244 214.274C601.837 197.982 613.962 183.753 630.094 182.341C646.334 180.93 660.517 193.094 661.924 209.278C658.893 194.615 645.468 184.622 630.635 185.817C614.395 187.229 602.378 201.457 603.785 217.749C603.461 216.555 603.352 215.468 603.244 214.274Z" fill="black"/>
<path d="M341.682 32.6727H303.68C302.489 32.6727 301.948 31.1521 302.922 30.3918L320.895 16.3807L340.924 0.740473C341.357 0.414634 342.007 0.414634 342.44 0.740473L362.469 16.3807L380.441 30.5004C381.416 31.2607 380.874 32.7813 379.683 32.7813H341.682V32.6727Z" fill="#FF744F"/>
<path opacity="0.7" d="M341.682 32.6727H303.68C302.489 32.6727 301.948 31.1521 302.922 30.3918L320.895 16.3807L340.924 0.740473C341.357 0.414634 342.007 0.414634 342.44 0.740473L362.469 16.3807L380.441 30.5004C381.416 31.2607 380.874 32.7813 379.683 32.7813H341.682V32.6727Z" fill="white"/>
<path d="M368.532 28.4366H314.832C314.507 28.4366 314.182 28.2194 314.074 27.8935C313.965 27.5677 314.074 27.2419 314.29 27.0246L341.14 6.06233C341.465 5.84511 341.79 5.84511 342.115 6.06233L368.965 27.0246C369.29 27.2419 369.29 27.5677 369.181 27.8935C369.181 28.2194 368.857 28.4366 368.532 28.4366ZM315.589 27.3505H367.666L341.573 7.03985L315.589 27.3505Z" fill="#FF744F"/>
<path d="M318.404 32.6729H311.15V63.7361H318.404V32.6729Z" fill="#FF744F"/>
<path opacity="0.7" d="M318.404 32.6729H311.15V63.7361H318.404V32.6729Z" fill="white"/>
<path d="M334.861 32.6729H327.607V63.7361H334.861V32.6729Z" fill="#FF744F"/>
<path opacity="0.7" d="M334.861 32.6729H327.607V63.7361H334.861V32.6729Z" fill="white"/>
<path d="M357.272 32.6729H350.018V63.7361H357.272V32.6729Z" fill="#FF744F"/>
<path opacity="0.7" d="M357.272 32.6729H350.018V63.7361H357.272V32.6729Z" fill="white"/>
<path d="M373.404 32.6729H366.15V63.7361H373.404V32.6729Z" fill="#FF744F"/>
<path opacity="0.7" d="M373.404 32.6729H366.15V63.7361H373.404V32.6729Z" fill="white"/>
<path d="M380.441 71.7732H303.031C301.948 71.7732 301.082 70.6871 301.407 69.6009L302.597 65.0392C302.814 64.2789 303.464 63.7358 304.221 63.7358H378.925C379.683 63.7358 380.333 64.1703 380.549 64.9306L381.957 69.4923C382.39 70.6871 381.524 71.7732 380.441 71.7732Z" fill="#FF744F"/>
<path opacity="0.7" d="M380.441 71.7732H303.031C301.948 71.7732 301.082 70.6871 301.407 69.6009L302.597 65.0392C302.814 64.2789 303.464 63.7358 304.221 63.7358H378.925C379.683 63.7358 380.333 64.1703 380.549 64.9306L381.957 69.4923C382.39 70.6871 381.524 71.7732 380.441 71.7732Z" fill="white"/>
<path d="M341.682 24.3093C338.975 24.3093 336.702 22.137 336.702 19.3131C336.702 16.5978 338.867 14.3169 341.682 14.3169C344.389 14.3169 346.662 16.4892 346.662 19.3131C346.554 22.137 344.389 24.3093 341.682 24.3093ZM341.682 15.5116C339.517 15.5116 337.784 17.2494 337.784 19.4217C337.784 21.594 339.517 23.3318 341.682 23.3318C343.847 23.3318 345.58 21.594 345.58 19.4217C345.58 17.2494 343.847 15.5116 341.682 15.5116Z" fill="#FF744F"/>
<path d="M377.301 37.2346H306.062C305.196 37.2346 304.438 36.4743 304.438 35.6054V34.302C304.438 33.4331 305.196 32.6729 306.062 32.6729H377.301C378.168 32.6729 378.925 33.4331 378.925 34.302V35.6054C378.925 36.4743 378.168 37.2346 377.301 37.2346Z" fill="#FF744F"/>
<path opacity="0.7" d="M377.301 37.2346H306.062C305.196 37.2346 304.438 36.4743 304.438 35.6054V34.302C304.438 33.4331 305.196 32.6729 306.062 32.6729H377.301C378.168 32.6729 378.925 33.4331 378.925 34.302V35.6054C378.925 36.4743 378.168 37.2346 377.301 37.2346Z" fill="white"/>
<path d="M377.301 33.4328H306.062C305.737 33.4328 305.521 33.2156 305.521 32.8897C305.521 32.5639 305.737 32.3467 306.062 32.3467H377.301C377.626 32.3467 377.843 32.5639 377.843 32.8897C377.843 33.2156 377.626 33.4328 377.301 33.4328Z" fill="#FF744F"/>
<path d="M377.301 68.5148H306.062C305.737 68.5148 305.521 68.2976 305.521 67.9718C305.521 67.6459 305.737 67.4287 306.062 67.4287H377.301C377.626 67.4287 377.843 67.6459 377.843 67.9718C377.843 68.2976 377.626 68.5148 377.301 68.5148Z" fill="#FF744F"/>
<path d="M615.724 318.433C616.157 317.782 621.787 316.261 626.659 323.104L626.118 328.317L628.499 325.167C628.499 325.167 629.799 326.145 629.257 328.751C628.716 331.358 628.283 333.639 628.283 333.639C628.283 333.639 630.448 327.448 631.098 327.882C631.747 328.317 638.243 337.44 639.434 339.613C640.625 341.785 643.332 352.755 641.275 354.275C639.326 355.796 634.887 356.991 630.015 355.253C625.143 353.515 620.379 344.609 620.379 344.609L626.442 339.939L618.864 342.762C618.972 342.762 609.878 327.557 615.724 318.433Z" fill="#FF744F"/>
<path opacity="0.1" d="M615.724 318.433C625.576 334.725 638.352 346.672 641.383 354.275C639.434 355.796 634.995 356.991 630.123 355.253C625.251 353.515 620.488 344.609 620.488 344.609L626.551 339.938L618.972 342.762C618.972 342.762 609.877 327.557 615.724 318.433Z" fill="white"/>
<path d="M621.245 327.556C621.354 328.208 622.328 329.077 622.653 329.511C623.844 331.032 625.035 332.553 626.334 334.073C628.824 337.114 631.314 340.156 633.804 343.197C641.924 352.972 645.605 365.028 647.554 377.41C648.853 386.099 649.503 394.896 650.261 403.585C650.261 404.129 651.127 404.129 651.127 403.585C649.828 388.814 649.178 373.5 644.09 359.38C642.033 353.624 639.109 348.193 635.212 343.414C633.155 340.807 630.989 338.309 628.932 335.811C627.417 333.965 625.901 332.118 624.385 330.163C623.844 329.511 623.302 328.86 622.761 328.1C622.653 327.882 622.112 327.339 622.112 327.231C621.895 326.905 621.137 327.122 621.245 327.556Z" fill="#263238"/>
<path d="M692.918 357.534C692.701 356.882 688.587 354.275 682.957 358.511L682.091 362.856L680.9 359.706C680.9 359.706 679.601 360.249 679.384 362.421C679.168 364.702 678.951 366.657 678.951 366.657C678.951 366.657 678.735 361.118 678.194 361.335C677.544 361.553 669.965 367.2 668.558 368.612C667.042 370.024 661.087 376.65 663.361 379.908C664.552 381.646 667.8 383.71 672.239 383.492C676.678 383.275 682.741 377.301 682.741 377.301L679.06 371.979L684.473 376.215C684.148 376.324 695.3 366.44 692.918 357.534Z" fill="#FF744F"/>
<path opacity="0.3" d="M692.918 357.534C692.701 356.882 688.587 354.275 682.957 358.511L682.091 362.856L680.9 359.706C680.9 359.706 679.601 360.249 679.384 362.421C679.168 364.702 678.951 366.657 678.951 366.657C678.951 366.657 678.735 361.118 678.194 361.335C677.544 361.553 669.965 367.2 668.558 368.612C667.042 370.024 661.087 376.65 663.361 379.908C664.552 381.646 667.8 383.71 672.239 383.492C676.678 383.275 682.741 377.301 682.741 377.301L679.06 371.979L684.473 376.215C684.148 376.324 695.3 366.44 692.918 357.534Z" fill="black"/>
<path d="M692.81 338.853C692.81 338.853 693.784 332.01 681.658 334.617V342.328L678.843 335.486C678.843 335.486 671.806 335.703 669.532 338.201V346.238L665.31 340.156C665.31 340.156 656.973 347.542 657.406 353.841C657.84 360.141 661.087 364.811 661.087 364.811C660.33 360.575 686.314 336.789 692.81 338.853Z" fill="#FF744F"/>
<path d="M606.63 360.792C606.63 360.792 605.655 353.949 617.781 356.556V364.268L620.596 357.425C620.596 357.425 627.633 357.642 629.907 360.14V368.178L634.129 362.095C634.129 362.095 642.466 369.481 642.033 375.781C641.6 382.08 638.352 386.75 638.352 386.75C630.015 371.871 617.131 362.964 606.63 360.792Z" fill="#FF744F"/>
<path opacity="0.3" d="M606.63 360.792C606.63 360.792 605.655 353.949 617.781 356.556V364.268L620.596 357.425C620.596 357.425 627.633 357.642 629.907 360.14V368.178L634.129 362.095C634.129 362.095 642.466 369.481 642.033 375.781C641.6 382.08 638.352 386.75 638.352 386.75C630.015 371.871 617.131 362.964 606.63 360.792Z" fill="black"/>
<path d="M668.125 285.741C669.099 285.632 674.946 290.194 671.914 300.295L666.284 303.879H671.373C671.373 303.879 671.373 306.051 668.341 307.463C665.31 308.875 662.712 310.287 662.712 310.287C662.712 310.287 670.615 307.68 670.615 308.658C670.615 309.636 666.609 323.212 665.31 326.036C664.119 328.86 655.133 340.047 652.101 339.287C649.07 338.527 644.523 334.942 642.466 328.751C640.409 322.452 645.714 310.83 645.714 310.83L655.025 313.328L646.363 307.898C646.363 307.898 654.375 286.935 668.125 285.741Z" fill="#FF744F"/>
<path opacity="0.3" d="M668.125 285.741C669.099 285.632 674.946 290.194 671.914 300.295L666.284 303.879H671.373C671.373 303.879 671.373 306.051 668.341 307.463C665.31 308.875 662.712 310.287 662.712 310.287C662.712 310.287 670.615 307.68 670.615 308.658C670.615 309.636 666.609 323.212 665.31 326.036C664.119 328.86 655.133 340.047 652.101 339.287C649.07 338.527 644.523 334.942 642.466 328.751C640.409 322.452 645.714 310.83 645.714 310.83L655.025 313.328L646.363 307.898C646.363 307.898 654.375 286.935 668.125 285.741Z" fill="black"/>
<path d="M645.822 404.238C645.822 376.107 649.611 348.085 656.865 320.931C658.922 313.328 661.196 305.726 663.794 298.34C664.011 297.797 663.144 297.58 663.036 298.123C653.834 324.624 647.987 352.321 645.93 380.343C645.28 388.271 645.064 396.309 645.064 404.238C645.064 404.672 645.822 404.672 645.822 404.238Z" fill="#263238"/>
<path d="M692.809 338.418C689.237 338.418 685.772 340.482 682.849 342.328C678.518 345.043 674.621 348.302 670.94 351.777C667.258 355.253 663.902 359.163 661.196 363.508C657.948 368.83 655.674 375.129 654.05 381.211C651.993 388.814 651.235 396.852 652.209 404.672C652.318 405.215 653.076 405.215 653.076 404.672C652.209 397.829 652.751 390.987 654.158 384.253C655.566 377.844 657.839 371.328 660.979 365.463C663.253 361.227 666.501 357.425 669.857 353.95C673.43 350.257 677.327 346.89 681.441 344.066C684.689 341.894 688.695 339.07 692.809 339.07C693.351 339.287 693.351 338.418 692.809 338.418Z" fill="#263238"/>
<path d="M642.899 411.188C642.033 402.282 641.708 392.398 637.052 384.361C634.887 380.668 632.18 377.301 629.257 374.26C626.442 371.219 623.302 368.395 619.838 366.114C615.832 363.399 611.501 361.335 606.738 360.466C606.196 360.358 605.98 361.118 606.521 361.226C614.749 362.747 621.787 367.852 627.633 373.717C630.448 376.649 633.263 379.799 635.428 383.275C637.81 386.968 639.218 390.986 640.084 395.331C641.166 400.544 641.599 405.866 642.141 411.297C642.141 411.731 642.899 411.731 642.899 411.188Z" fill="#263238"/>
<path opacity="0.1" d="M692.918 357.534C680.792 368.178 667.584 374.586 663.253 379.908C664.444 381.646 667.692 383.709 672.023 383.492C676.353 383.275 682.416 377.301 682.416 377.301L678.735 372.088L684.148 376.324C684.148 376.324 695.3 366.44 692.918 357.534Z" fill="white"/>
<path d="M685.556 363.182C685.339 363.508 683.932 364.268 683.39 364.703C681.875 365.68 680.359 366.658 678.843 367.744C676.245 369.481 673.646 371.111 671.048 372.848C661.954 378.822 655.891 388.054 651.235 397.721C648.096 404.238 645.497 410.863 642.79 417.488C642.574 417.923 643.332 418.14 643.548 417.706C648.312 406.193 652.643 394.028 660.33 384.036C663.469 380.017 667.15 376.324 671.373 373.5C673.863 371.871 676.461 370.133 678.951 368.504C680.575 367.418 682.199 366.332 683.823 365.246C684.473 364.811 685.664 364.268 686.097 363.616C686.53 363.182 685.772 362.747 685.556 363.182Z" fill="#263238"/>
<path d="M631.422 404.455L647.121 404.998L662.82 404.455C662.82 404.455 668.45 429.979 665.31 436.604C662.603 442.143 654.591 443.121 648.745 443.338C648.312 443.338 647.771 443.338 647.121 443.338C646.58 443.338 646.038 443.338 645.497 443.338C639.651 443.121 631.639 442.143 628.932 436.604C625.793 429.979 631.422 404.455 631.422 404.455Z" fill="#FF744F"/>
<path d="M631.639 404.237C631.639 404.889 638.676 405.432 647.229 405.432C655.782 405.432 662.82 404.889 662.82 404.237C662.82 403.586 655.782 403.042 647.229 403.042C638.676 403.042 631.639 403.477 631.639 404.237Z" fill="#263238"/>
<path opacity="0.3" d="M661.737 407.17C661.737 407.17 664.768 426.72 663.469 432.26C661.629 440.297 647.771 441.6 647.229 440.623C646.688 439.645 652.21 434.106 652.101 428.132C651.993 422.159 650.477 408.039 650.477 408.039L661.737 407.17Z" fill="white"/>
<path opacity="0.1" d="M668.558 285.632C659.68 308.332 654.483 326.905 652.21 339.178C649.178 338.309 644.523 334.942 642.466 328.643C640.517 322.343 645.822 310.721 645.822 310.721L655.133 313.328L646.472 307.789C646.472 307.68 654.7 286.827 668.558 285.632Z" fill="white"/>
<path d="M308.267 424.439H239.517C232.155 424.439 226.201 418.465 226.201 411.08V356.882C226.201 349.496 232.155 343.522 239.517 343.522H308.267C315.629 343.522 321.584 349.496 321.584 356.882V411.08C321.584 418.465 315.629 424.439 308.267 424.439Z" fill="#263238"/>
<path opacity="0.1" d="M308.267 424.439H239.517C232.155 424.439 226.201 418.465 226.201 411.08V356.882C226.201 349.496 232.155 343.522 239.517 343.522H308.267C315.629 343.522 321.584 349.496 321.584 356.882V411.08C321.584 418.465 315.629 424.439 308.267 424.439Z" fill="white"/>
<path d="M275.462 421.29L279.468 445.836H270.915L263.011 422.376L275.462 421.29Z" fill="#263238"/>
<path d="M167.628 421.29L163.623 445.836H172.176L180.079 422.376L167.628 421.29Z" fill="#263238"/>
<path opacity="0.1" d="M275.462 421.29L279.468 445.836H270.915L263.011 422.376L275.462 421.29Z" fill="white"/>
<path opacity="0.1" d="M167.628 421.29L163.623 445.836H172.176L180.079 422.376L167.628 421.29Z" fill="white"/>
<path d="M213.858 421.29L217.864 445.836H209.311L201.408 422.376L213.858 421.29Z" fill="#263238"/>
<path d="M96.9302 421.29L92.9243 445.836H101.477L109.381 422.376L96.9302 421.29Z" fill="#263238"/>
<path d="M90.1096 370.241H282.716C288.129 370.241 292.568 374.694 292.568 380.125V417.596C292.568 423.027 288.129 427.48 282.716 427.48H90.1096C84.6963 427.48 80.2573 423.027 80.2573 417.596V380.125C80.2573 374.694 84.6963 370.241 90.1096 370.241Z" fill="#263238"/>
<path opacity="0.1" d="M90.1096 370.241H282.716C288.129 370.241 292.568 374.694 292.568 380.125V417.596C292.568 423.027 288.129 427.48 282.716 427.48H90.1096C84.6963 427.48 80.2573 423.027 80.2573 417.596V380.125C80.2573 374.694 84.6963 370.241 90.1096 370.241Z" fill="white"/>
<path opacity="0.2" d="M164.272 370.241H282.716C288.129 370.241 292.568 374.694 292.568 380.125V417.596C292.568 423.027 288.129 427.48 282.716 427.48H164.272C158.859 427.48 154.42 423.027 154.42 417.596V380.125C154.42 374.694 158.859 370.241 164.272 370.241Z" fill="white"/>
<path opacity="0.2" d="M257.814 371.11L285.964 427.046C285.964 427.046 289.753 425.634 291.594 421.941C293.434 418.248 293.326 407.713 293.326 407.713L268.1 370.35L257.814 371.11Z" fill="black"/>
<path opacity="0.2" d="M308.267 424.439C315.629 424.439 321.584 418.466 321.584 411.08V356.773C321.584 349.388 315.629 343.414 308.267 343.414C300.905 343.414 295.058 349.388 294.95 356.665V410.971C295.058 418.466 301.013 424.439 308.267 424.439Z" fill="white"/>
<path d="M226.417 370.459H85.9953L64.6667 259.565C62.6097 248.921 69.5387 238.603 80.1489 236.539C81.3398 236.322 82.639 236.213 83.8299 236.213H184.41C193.829 236.213 201.841 242.839 203.681 252.179L226.417 370.459Z" fill="#263238"/>
<g opacity="0.1">
<path d="M226.417 370.459H85.9953L64.6667 259.565C62.6097 248.921 69.5387 238.603 80.1489 236.539C81.3398 236.322 82.639 236.213 83.8299 236.213H184.41C193.829 236.213 201.841 242.839 203.681 252.179L226.417 370.459Z" fill="white"/>
</g>
<path opacity="0.2" d="M226.526 370.242H125.946L103.102 251.962C101.261 242.73 93.2493 236.105 83.8301 236.213H184.41C193.721 236.213 201.841 242.839 203.681 251.962L226.526 370.242Z" fill="white"/>
<path d="M195.885 280.744C195.885 280.744 203.356 303.227 204.33 304.313C207.578 308.006 224.576 311.916 224.576 311.916L232.155 308.549L238.867 312.133L235.728 315.826L230.964 315.066C228.69 316.043 226.308 316.695 223.818 317.238C219.704 318.107 198.917 317.238 194.478 312.459C190.039 307.68 183.218 282.482 183.218 282.482L195.885 280.744Z" fill="#FDBBB5"/>
<path d="M187.766 271.186C188.524 275.748 197.293 289.325 194.37 299.317C193.612 310.504 201.949 320.497 199.567 325.601C195.453 330.163 169.144 334.942 146.949 336.571C144.134 327.774 145.217 308.223 133.199 280.636C130.384 274.227 136.122 264.778 149.006 259.891C154.744 257.936 160.916 257.61 166.87 258.696C173.041 260.108 186.466 263.149 187.766 271.186Z" fill="#FF744F"/>
<path d="M179.429 262.606C179.429 262.606 187.982 263.692 192.205 271.838C195.453 278.029 199.242 286.935 199.242 286.935L185.167 289.325L179.429 262.606Z" fill="#FF744F"/>
<path d="M184.301 215.251C184.301 215.251 188.848 210.363 174.882 205.15C160.807 199.936 146.949 206.236 141.752 225.569C136.88 242.295 129.951 245.228 137.963 251.745C145.975 258.262 157.668 255.112 169.793 256.524C181.919 257.936 183.76 263.692 188.091 253.7C191.122 246.64 191.014 236.104 191.014 236.104C191.014 236.104 191.555 215.902 184.301 215.251Z" fill="#263238"/>
<path d="M153.878 238.06C153.878 245.011 152.795 256.198 148.79 261.194C148.79 261.194 155.069 265.756 169.902 274.988C175.315 265.43 169.144 263.475 169.144 263.475C164.272 260.977 165.679 257.501 166.87 252.722L153.878 238.06Z" fill="#FDBBB5"/>
<path opacity="0.2" d="M166.978 252.831L155.394 243.381C154.961 244.793 154.961 246.314 155.502 247.726C157.126 252.179 161.457 255.763 165.679 258.261C166.112 256.306 166.437 254.786 166.978 252.831Z" fill="black"/>
<path d="M152.688 224.809C151.93 236.104 151.388 240.883 156.152 247.291C163.406 257.067 177.048 255.437 181.162 244.576C184.843 234.801 185.492 217.966 175.315 212.209C165.138 206.453 153.337 213.513 152.688 224.809Z" fill="#FDBBB5"/>
<path d="M167.086 230.565C166.762 231.76 167.086 232.846 167.736 233.172C168.386 233.389 169.252 232.738 169.577 231.543C169.901 230.348 169.577 229.262 168.927 228.936C168.277 228.719 167.411 229.479 167.086 230.565Z" fill="#263238"/>
<path d="M177.805 232.846C177.48 233.932 177.805 235.127 178.455 235.344C179.104 235.562 179.97 234.91 180.295 233.824C180.62 232.738 180.295 231.543 179.646 231.326C178.888 231 178.13 231.76 177.805 232.846Z" fill="#263238"/>
<path d="M166.329 224.483C166.437 224.592 166.653 224.592 166.762 224.483C168.927 223.506 170.659 224.7 170.659 224.7C170.876 224.917 171.201 224.809 171.417 224.592C171.525 224.374 171.525 223.94 171.201 223.831C171.092 223.723 169.035 222.311 166.329 223.506C166.112 223.614 165.896 223.94 166.112 224.266C166.112 224.266 166.22 224.374 166.329 224.483Z" fill="#263238"/>
<path d="M183.218 228.719C183.327 228.719 183.435 228.719 183.543 228.61C183.76 228.393 183.76 228.067 183.543 227.85C181.594 225.569 179.429 226.004 179.321 226.004C179.104 226.004 178.888 226.33 178.996 226.655C179.104 226.981 179.321 227.199 179.537 227.09C179.646 227.09 181.27 226.764 182.894 228.61C182.894 228.61 183.11 228.719 183.218 228.719Z" fill="#263238"/>
<path d="M174.557 231.326C174.557 231.326 174.882 235.996 175.856 239.146C176.073 239.689 175.64 240.232 174.99 240.232C173.474 240.232 172.067 239.254 172.067 239.254L174.557 231.326Z" fill="#F48882"/>
<path d="M168.494 228.936L171.201 229.262C171.201 229.153 169.252 230.565 168.494 228.936Z" fill="#263238"/>
<path d="M179.321 231.217L182.027 231.543C182.027 231.543 180.079 232.846 179.321 231.217Z" fill="#263238"/>
<path d="M168.602 242.078C164.921 241.644 164.813 238.168 164.813 238.168C164.813 238.06 164.921 237.842 165.03 237.842C165.138 237.842 165.354 237.951 165.354 238.06C165.354 238.168 165.463 240.992 168.602 241.427C168.711 241.427 168.819 241.535 168.819 241.752C168.927 241.97 168.819 242.078 168.602 242.078Z" fill="#263238"/>
<path d="M179.105 213.079C168.603 222.962 160.591 234.15 155.069 235.018C149.656 235.887 145.542 223.18 151.172 216.772C156.802 210.255 168.819 204.716 179.105 213.079Z" fill="#263238"/>
<path d="M148.14 232.629C148.682 235.236 150.197 237.408 151.93 238.494C154.528 240.232 157.559 236.105 157.559 232.955C157.559 230.131 155.394 227.416 152.363 226.981C149.548 226.655 147.599 229.696 148.14 232.629Z" fill="#FDBBB5"/>
<path opacity="0.2" d="M154.853 234.475C154.636 234.475 154.528 234.258 154.636 234.15C154.853 233.172 154.744 232.086 154.311 231.217C153.77 230.348 153.012 229.697 152.038 229.371C151.93 229.371 151.821 229.153 151.821 229.045C151.821 228.936 152.038 228.828 152.146 228.828C153.229 229.153 154.203 229.914 154.744 230.891C155.286 231.869 155.502 233.172 155.178 234.258C155.069 234.367 154.961 234.475 154.853 234.475Z" fill="black"/>
<path d="M177.589 213.73C176.831 217.966 174.557 221.876 171.309 224.7C171.309 224.7 178.238 222.963 181.594 218.184L177.589 213.73Z" fill="#263238"/>
<path d="M361.967 399.675C357.853 395.983 353.305 392.833 348.325 390.443C348.325 390.443 351.032 378.604 354.496 380.885C360.776 385.013 373.443 386.859 380.156 381.32C383.945 378.17 384.703 383.058 383.079 386.316C380.48 391.529 379.506 391.312 375.284 394.028C371.603 396.417 370.195 397.286 368.571 400.436C367.164 403.042 364.565 401.848 361.967 399.675Z" fill="#3F4F8B"/>
<path d="M359.152 380.234L349.733 393.919C335.55 388.271 323.641 383.166 313.897 378.387C268.1 356.23 264.852 343.522 258.464 342.871C257.165 342.979 255.866 343.305 254.783 343.848C239.842 350.256 191.988 384.904 167.304 377.627C139.912 369.481 146.733 336.788 146.733 336.788C220.246 312.242 266.151 308.549 284.989 320.497C303.936 332.335 359.152 380.234 359.152 380.234Z" fill="#263238"/>
<path opacity="0.2" d="M313.788 378.279C267.992 356.122 264.744 343.414 258.356 342.762C257.057 342.871 255.757 343.197 254.675 343.74L254.783 343.197C254.783 343.197 274.596 337.983 287.913 342.545C297.657 345.803 308.483 366.983 313.788 378.279Z" fill="black"/>
<path d="M302.529 437.581C302.637 432.477 302.096 427.263 300.796 422.267C300.796 422.267 310.757 416.945 311.298 420.746C312.164 427.698 318.66 437.799 326.564 439.102C331.111 439.862 328.08 443.338 324.832 444.207C319.635 445.51 319.202 444.75 314.655 443.338C310.757 442.143 309.241 441.709 306.101 442.578C303.395 443.338 302.745 440.731 302.529 437.581Z" fill="#3F4F8B"/>
<path d="M312.814 421.29L300.688 427.046C300.688 427.046 270.915 382.732 266.692 371.11C266.692 371.11 246.338 371.545 218.947 370.676C213.966 370.567 211.043 370.676 205.63 370.35C205.63 370.35 231.506 346.998 254.891 343.305C256.082 343.088 257.273 342.98 258.464 342.871C258.464 342.871 279.251 341.242 285.098 346.238C290.944 351.234 312.814 421.29 312.814 421.29Z" fill="#263238"/>
<path opacity="0.1" d="M312.814 421.29L300.688 427.046C300.688 427.046 270.915 382.732 266.692 371.11C266.692 371.11 246.338 371.545 218.947 370.676C213.966 370.567 211.043 370.676 205.63 370.35C205.63 370.35 231.506 346.998 254.891 343.305C256.082 343.088 257.273 342.98 258.464 342.871C258.464 342.871 279.251 341.242 285.098 346.238C290.944 351.234 312.814 421.29 312.814 421.29Z" fill="black"/>
<path opacity="0.2" d="M254.891 343.197C245.797 354.167 230.856 363.833 218.947 370.676C213.966 370.567 211.043 370.676 205.63 370.35C205.63 370.241 231.614 346.781 254.891 343.197Z" fill="black"/>
<path d="M150.739 291.063C150.739 291.063 155.827 314.415 158.534 316.37C163.081 319.628 187.874 321.583 187.874 321.583L196.427 316.37C197.077 316.044 197.727 315.935 198.376 316.261L205.738 319.737L205.197 320.388C204.98 320.714 204.656 320.823 204.331 320.714L203.248 320.388L204.547 321.257L204.223 321.583C203.898 321.909 203.465 322.126 203.032 322.126L200.108 321.909L203.032 323.104C202.599 323.755 201.732 324.081 200.975 323.973L196.644 323.647C193.937 324.842 191.231 325.928 188.307 326.688C183.544 327.991 156.26 332.01 150.847 327.014C145.326 322.018 136.772 298.34 136.772 298.34L150.739 291.063Z" fill="#FDBBB5"/>
<path d="M225.118 316.261L206.388 320.171L186.467 324.407C186.792 325.927 188.74 326.688 190.689 326.253L210.61 322.017L221.978 319.628L253.7 313.002C255.757 312.568 257.057 311.047 256.732 309.527L225.118 316.261Z" fill="#263238"/>
<path d="M254.241 312.785L218.838 320.171C218.189 320.28 217.647 319.954 217.539 319.519C217.539 319.411 217.539 319.302 217.539 319.194L225.659 279.658C225.876 278.572 226.85 277.595 228.257 277.269L263.661 269.775C264.31 269.666 264.852 269.883 264.96 270.426C264.96 270.535 264.96 270.644 264.96 270.752L256.84 310.287C256.623 311.591 255.649 312.568 254.241 312.785Z" fill="#263238"/>
<path opacity="0.7" d="M263.769 269.992L228.366 277.486C227.067 277.812 225.984 278.681 225.767 279.876L217.864 317.89L206.279 320.28L186.358 324.516C186.683 326.036 188.632 326.797 190.581 326.362L210.502 322.126L221.87 319.737L253.592 313.111C254.242 313.003 254.783 312.677 255.216 312.351C255.974 311.917 256.515 311.265 256.623 310.396L264.743 270.861C264.743 270.752 264.743 270.644 264.743 270.535C264.852 270.209 264.31 269.883 263.769 269.992Z" fill="white"/>
<path d="M246.554 293.778C246.121 295.625 244.822 297.145 243.631 297.145C242.44 297.145 241.791 295.625 242.116 293.778C242.44 291.932 243.848 290.411 245.039 290.411C246.23 290.411 246.879 291.823 246.554 293.778Z" fill="white"/>
<g opacity="0.3">
<path d="M225.768 279.876L217.864 317.89L219.488 317.564L228.258 277.595C227.067 277.812 225.984 278.681 225.768 279.876Z" fill="black"/>
</g>
<path d="M134.282 271.404C134.282 271.404 130.06 275.314 131.142 283.46C132.225 291.497 135.581 300.947 135.581 300.947L155.178 292.04C155.178 291.932 146.516 260.434 134.282 271.404Z" fill="#FF744F"/>
<path d="M141.861 427.48H73.1117C65.7496 427.48 59.7949 421.506 59.7949 414.121V359.923C59.7949 352.537 65.7496 346.563 73.1117 346.563H141.861C149.223 346.563 155.178 352.537 155.178 359.923V414.121C155.178 421.506 149.223 427.48 141.861 427.48Z" fill="#263238"/>
<path opacity="0.1" d="M141.861 427.48H73.1117C65.7496 427.48 59.7949 421.506 59.7949 414.121V359.923C59.7949 352.537 65.7496 346.563 73.1117 346.563H141.861C149.223 346.563 155.178 352.537 155.178 359.923V414.121C155.178 421.506 149.223 427.48 141.861 427.48Z" fill="white"/>
<path opacity="0.2" d="M141.861 427.48C149.223 427.48 155.178 421.507 155.178 414.121V359.814C155.178 352.429 149.223 346.455 141.861 346.455C134.499 346.455 128.544 352.429 128.544 359.706V414.012C128.653 421.507 134.607 427.48 141.861 427.48Z" fill="white"/>
</svg>
